<svg width="13" height="16" viewBox="0 0 13 16" fill="none" xmlns="http://www.w3.org/2000/svg">
<g clip-path="url(#clip0_734_5495)">
<path d="M10.0976 5.20849V6.90149L7.67884 8.34888V11.2728L6.26534 12.1218L4.85603 11.2741V8.33706L2.4375 6.8923V5.20875L3.82973 4.36816L6.26691 5.82317L8.70252 4.36816L10.0976 5.20849Z" fill="#F1B90A"/>
<path d="M3.81943 13.5516L0 11.2607V6.6842L1.39801 7.51271V10.424L3.81943 11.873V13.5516Z" fill="#F1B90A"/>
<path d="M8.70801 13.5544V11.8761L11.13 10.4271V7.51634L12.5248 6.68835V11.2664L8.70801 13.5544Z" fill="#F1B90A"/>
<path d="M6.26627 1.68039L3.83119 3.1354L2.43555 2.29481L6.2647 0L10.0952 2.29612L8.69978 3.13671L6.26627 1.68039Z" fill="#F1B90A"/>
<path d="M7.6695 14.1892L6.2665 15.0337L4.86035 14.1884V12.5106L6.26492 13.3546L7.66845 12.514L7.6695 14.1892Z" fill="#F1B90A"/>
<path d="M11.132 6.28126V4.59772L9.72949 3.75161L11.1249 2.9126L12.5281 3.75687V5.45381L11.132 6.28126Z" fill="#F1B90A"/>
<path d="M1.40942 2.91235L2.80296 3.75137L1.3997 4.59958V6.27865L0.00195312 5.45251V3.75951L1.40942 2.91235Z" fill="#F1B90A"/>
<path d="M4.87109 3.75212L6.26542 2.91284L7.65975 3.75159L6.26595 4.59218L4.87109 3.75212Z" fill="#F1B90A"/>
<path d="M3.81017 8.96223V10.6403L2.43555 9.81412V8.13635L3.81017 8.96223Z" fill="#F1B90A"/>
<path d="M10.0976 8.13477V9.81122L8.72559 10.6379V8.96065L10.0976 8.13477Z" fill="#F1B90A"/>
</g>
<defs>
<clipPath id="clip0_734_5495">
<rect width="12.5272" height="15.0337" fill="white"/>
</clipPath>
</defs>
</svg>
