<svg width="185" height="129" viewBox="0 0 185 129" fill="none" xmlns="http://www.w3.org/2000/svg">
<g filter="url(#filter0_i_734_3381)">
<g clip-path="url(#clip0_734_3381)">
<rect x="6.10352e-05" width="184.371" height="28.9842" rx="4.83069" fill="#0D0D0D"/>
<g filter="url(#filter1_dii_734_3381)">
<path d="M3.22052 6.44092C3.22052 4.66231 4.66237 3.22046 6.44098 3.22046H22.5433C24.3219 3.22046 25.7638 4.66231 25.7638 6.44092V22.5432C25.7638 24.3218 24.3219 25.7637 22.5433 25.7637H6.44098C4.66237 25.7637 3.22052 24.3218 3.22052 22.5432V6.44092Z" fill="#0D0D0D"/>
<g clip-path="url(#clip1_734_3381)">
<path d="M21.0352 8.53882H15.9175L13.3858 13.4756L10.8525 8.53882H7.64259C7.60338 8.53878 7.56483 8.54886 7.53066 8.56808C7.49648 8.58729 7.46784 8.615 7.4475 8.64852C7.42717 8.68203 7.41581 8.72023 7.41455 8.75941C7.41328 8.7986 7.42214 8.83745 7.44028 8.87221L13.759 21.1934C13.8139 21.2996 13.8968 21.3885 13.9989 21.4507C14.1009 21.5128 14.218 21.5456 14.3375 21.5456C14.4569 21.5456 14.5741 21.5128 14.6761 21.4507C14.7781 21.3885 14.8611 21.2996 14.9159 21.1934L21.2347 8.87221C21.2527 8.83766 21.2616 8.79907 21.2605 8.76012C21.2593 8.72117 21.2482 8.68316 21.2282 8.64972C21.2082 8.61629 21.18 8.58853 21.1462 8.56912C21.1124 8.5497 21.0742 8.53927 21.0352 8.53882ZM14.3389 20.9071L13.4841 19.233L18.6573 9.17711H20.3585L14.3389 20.9071Z" fill="white"/>
</g>
</g>
<g filter="url(#filter2_dii_734_3381)">
<path d="M33.8149 6.44092C33.8149 4.66231 35.2567 3.22046 37.0353 3.22046H53.1376C54.9163 3.22046 56.3581 4.66231 56.3581 6.44092V22.5432C56.3581 24.3218 54.9163 25.7637 53.1377 25.7637H37.0353C35.2567 25.7637 33.8149 24.3218 33.8149 22.5432V6.44092Z" fill="#0D0D0D"/>
<path d="M42.9413 15.7853C43.5178 15.7853 43.9851 15.318 43.9851 14.7415C43.9851 14.1651 43.5178 13.6978 42.9413 13.6978C42.3649 13.6978 41.8976 14.1651 41.8976 14.7415C41.8976 15.318 42.3649 15.7853 42.9413 15.7853Z" fill="white"/>
<path d="M47.7731 15.7853C48.3495 15.7853 48.8168 15.318 48.8168 14.7415C48.8168 14.1651 48.3495 13.6978 47.7731 13.6978C47.1966 13.6978 46.7293 14.1651 46.7293 14.7415C46.7293 15.318 47.1966 15.7853 47.7731 15.7853Z" fill="white"/>
<path d="M44.1493 17.8768C44.7258 17.8768 45.1931 17.4095 45.1931 16.8331C45.1931 16.2566 44.7258 15.7893 44.1493 15.7893C43.5728 15.7893 43.1055 16.2566 43.1055 16.8331C43.1055 17.4095 43.5728 17.8768 44.1493 17.8768Z" fill="white"/>
<path d="M46.5652 13.6937C47.1416 13.6937 47.609 13.2264 47.609 12.65C47.609 12.0735 47.1416 11.6062 46.5652 11.6062C45.9887 11.6062 45.5214 12.0735 45.5214 12.65C45.5214 13.2264 45.9887 13.6937 46.5652 13.6937Z" fill="white"/>
<path d="M46.5652 17.8768C47.1416 17.8768 47.609 17.4095 47.609 16.8331C47.609 16.2566 47.1416 15.7893 46.5652 15.7893C45.9887 15.7893 45.5214 16.2566 45.5214 16.8331C45.5214 17.4095 45.9887 17.8768 46.5652 17.8768Z" fill="white"/>
<path d="M44.1493 13.6937C44.7258 13.6937 45.1931 13.2264 45.1931 12.65C45.1931 12.0735 44.7258 11.6062 44.1493 11.6062C43.5728 11.6062 43.1055 12.0735 43.1055 12.65C43.1055 13.2264 43.5728 13.6937 44.1493 13.6937Z" fill="white"/>
<path d="M50.6935 15.3101C50.9958 15.3101 51.2408 15.0651 51.2408 14.7628C51.2408 14.4606 50.9958 14.2156 50.6935 14.2156C50.3913 14.2156 50.1463 14.4606 50.1463 14.7628C50.1463 15.0651 50.3913 15.3101 50.6935 15.3101Z" fill="white"/>
<path d="M40.0209 15.3101C40.3232 15.3101 40.5682 15.0651 40.5682 14.7628C40.5682 14.4606 40.3232 14.2156 40.0209 14.2156C39.7187 14.2156 39.4737 14.4606 39.4737 14.7628C39.4737 15.0651 39.7187 15.3101 40.0209 15.3101Z" fill="white"/>
<path d="M38.0802 15.1098C38.2718 15.1098 38.4272 14.9545 38.4272 14.7628C38.4272 14.5711 38.2718 14.4158 38.0802 14.4158C37.8885 14.4158 37.7332 14.5711 37.7332 14.7628C37.7332 14.9545 37.8885 15.1098 38.0802 15.1098Z" fill="white"/>
<path d="M52.6342 15.1098C52.8259 15.1098 52.9812 14.9545 52.9812 14.7628C52.9812 14.5711 52.8259 14.4158 52.6342 14.4158C52.4425 14.4158 52.2872 14.5711 52.2872 14.7628C52.2872 14.9545 52.4425 15.1098 52.6342 15.1098Z" fill="white"/>
<path d="M48.0253 10.6877C48.3276 10.6877 48.5726 10.4427 48.5726 10.1405C48.5726 9.83827 48.3276 9.59326 48.0253 9.59326C47.7231 9.59326 47.4781 9.83827 47.4781 10.1405C47.4781 10.4427 47.7231 10.6877 48.0253 10.6877Z" fill="white"/>
<path d="M42.689 19.9321C42.9913 19.9321 43.2363 19.6871 43.2363 19.3849C43.2363 19.0827 42.9913 18.8376 42.689 18.8376C42.3868 18.8376 42.1418 19.0827 42.1418 19.3849C42.1418 19.6871 42.3868 19.9321 42.689 19.9321Z" fill="white"/>
<path d="M41.7187 21.4111C41.9104 21.4111 42.0658 21.2557 42.0658 21.0641C42.0658 20.8724 41.9104 20.717 41.7187 20.717C41.5271 20.717 41.3717 20.8724 41.3717 21.0641C41.3717 21.2557 41.5271 21.4111 41.7187 21.4111Z" fill="white"/>
<path d="M48.9958 8.80857C49.1874 8.80857 49.3428 8.65319 49.3428 8.46153C49.3428 8.26987 49.1874 8.1145 48.9958 8.1145C48.8041 8.1145 48.6487 8.26987 48.6487 8.46153C48.6487 8.65319 48.8041 8.80857 48.9958 8.80857Z" fill="white"/>
<path d="M42.689 10.6877C42.9913 10.6877 43.2363 10.4427 43.2363 10.1405C43.2363 9.83827 42.9913 9.59326 42.689 9.59326C42.3868 9.59326 42.1418 9.83827 42.1418 10.1405C42.1418 10.4427 42.3868 10.6877 42.689 10.6877Z" fill="white"/>
<path d="M48.0253 19.9321C48.3276 19.9321 48.5726 19.6871 48.5726 19.3849C48.5726 19.0827 48.3276 18.8376 48.0253 18.8376C47.7231 18.8376 47.4781 19.0827 47.4781 19.3849C47.4781 19.6871 47.7231 19.9321 48.0253 19.9321Z" fill="white"/>
<path d="M48.9958 21.4111C49.1874 21.4111 49.3428 21.2557 49.3428 21.0641C49.3428 20.8724 49.1874 20.717 48.9958 20.717C48.8041 20.717 48.6487 20.8724 48.6487 21.0641C48.6487 21.2557 48.8041 21.4111 48.9958 21.4111Z" fill="white"/>
<path d="M41.7187 8.80857C41.9104 8.80857 42.0658 8.65319 42.0658 8.46153C42.0658 8.26987 41.9104 8.1145 41.7187 8.1145C41.5271 8.1145 41.3717 8.26987 41.3717 8.46153C41.3717 8.65319 41.5271 8.80857 41.7187 8.80857Z" fill="white"/>
<path d="M45.3572 11.2163C45.7052 11.2163 45.9872 10.9342 45.9872 10.5863C45.9872 10.2384 45.7052 9.9563 45.3572 9.9563C45.0093 9.9563 44.7272 10.2384 44.7272 10.5863C44.7272 10.9342 45.0093 11.2163 45.3572 11.2163Z" fill="white"/>
<path d="M45.3572 8.52679C45.5953 8.52679 45.7883 8.33377 45.7883 8.09567C45.7883 7.85757 45.5953 7.66455 45.3572 7.66455C45.1191 7.66455 44.9261 7.85757 44.9261 8.09567C44.9261 8.33377 45.1191 8.52679 45.3572 8.52679Z" fill="white"/>
<path d="M45.3572 19.5691C45.7052 19.5691 45.9872 19.287 45.9872 18.9391C45.9872 18.5911 45.7052 18.3091 45.3572 18.3091C45.0093 18.3091 44.7272 18.5911 44.7272 18.9391C44.7272 19.287 45.0093 19.5691 45.3572 19.5691Z" fill="white"/>
<path d="M45.3572 21.861C45.5953 21.861 45.7883 21.668 45.7883 21.4299C45.7883 21.1918 45.5953 20.9988 45.3572 20.9988C45.1191 20.9988 44.9261 21.1918 44.9261 21.4299C44.9261 21.668 45.1191 21.861 45.3572 21.861Z" fill="white"/>
<path d="M41.74 13.3052C42.088 13.3052 42.37 13.0231 42.37 12.6752C42.37 12.3272 42.088 12.0452 41.74 12.0452C41.3921 12.0452 41.11 12.3272 41.11 12.6752C41.11 13.0231 41.3921 13.3052 41.74 13.3052Z" fill="white"/>
<path d="M39.5832 11.8598C39.8213 11.8598 40.0143 11.6668 40.0143 11.4287C40.0143 11.1906 39.8213 10.9976 39.5832 10.9976C39.3451 10.9976 39.152 11.1906 39.152 11.4287C39.152 11.6668 39.3451 11.8598 39.5832 11.8598Z" fill="white"/>
<path d="M48.9744 17.4802C49.3224 17.4802 49.6044 17.1981 49.6044 16.8502C49.6044 16.5023 49.3224 16.2202 48.9744 16.2202C48.6265 16.2202 48.3444 16.5023 48.3444 16.8502C48.3444 17.1981 48.6265 17.4802 48.9744 17.4802Z" fill="white"/>
<path d="M51.1313 18.528C51.3694 18.528 51.5624 18.335 51.5624 18.0969C51.5624 17.8588 51.3694 17.6658 51.1313 17.6658C50.8932 17.6658 50.7001 17.8588 50.7001 18.0969C50.7001 18.335 50.8932 18.528 51.1313 18.528Z" fill="white"/>
<path d="M41.74 17.4802C42.088 17.4802 42.37 17.1981 42.37 16.8502C42.37 16.5023 42.088 16.2202 41.74 16.2202C41.3921 16.2202 41.11 16.5023 41.11 16.8502C41.11 17.1981 41.3921 17.4802 41.74 17.4802Z" fill="white"/>
<path d="M39.5832 18.528C39.8213 18.528 40.0143 18.335 40.0143 18.0969C40.0143 17.8588 39.8213 17.6658 39.5832 17.6658C39.3451 17.6658 39.152 17.8588 39.152 18.0969C39.152 18.335 39.3451 18.528 39.5832 18.528Z" fill="white"/>
<path d="M48.9744 13.3052C49.3224 13.3052 49.6044 13.0231 49.6044 12.6752C49.6044 12.3272 49.3224 12.0452 48.9744 12.0452C48.6265 12.0452 48.3444 12.3272 48.3444 12.6752C48.3444 13.0231 48.6265 13.3052 48.9744 13.3052Z" fill="white"/>
<path d="M51.1313 11.8598C51.3694 11.8598 51.5624 11.6668 51.5624 11.4287C51.5624 11.1906 51.3694 10.9976 51.1313 10.9976C50.8932 10.9976 50.7001 11.1906 50.7001 11.4287C50.7001 11.6668 50.8932 11.8598 51.1313 11.8598Z" fill="white"/>
</g>
<g filter="url(#filter3_dii_734_3381)">
<path d="M64.4092 6.44092C64.4092 4.66231 65.8511 3.22046 67.6297 3.22046H83.732C85.5106 3.22046 86.9525 4.66231 86.9525 6.44092V22.5432C86.9525 24.3218 85.5106 25.7637 83.732 25.7637H67.6297C65.8511 25.7637 64.4092 24.3218 64.4092 22.5432V6.44092Z" fill="#0D0D0D"/>
<g clip-path="url(#clip2_734_3381)">
<path d="M75.8304 8.00952L69.6773 11.557V18.6641L75.8291 22.2143L81.9795 18.6641V11.557L75.8304 8.00952ZM77.8423 13.9505L75.8304 12.7885L73.8132 13.9505V18.7882L71.6412 17.5314V12.6937L75.8304 10.2749L80.0183 12.6937L77.8423 13.9505Z" fill="white"/>
</g>
</g>
<g filter="url(#filter4_i_734_3381)">
<rect x="95.0037" y="3.22046" width="22.5432" height="22.5432" rx="3.28528" fill="#0B0909"/>
</g>
<g filter="url(#filter5_dii_734_3381)">
<path d="M125.598 6.44092C125.598 4.66231 127.04 3.22046 128.819 3.22046H144.921C146.699 3.22046 148.141 4.66231 148.141 6.44092V22.5432C148.141 24.3218 146.699 25.7637 144.921 25.7637H128.819C127.04 25.7637 125.598 24.3218 125.598 22.5432V6.44092Z" fill="#0D0D0D"/>
<path d="M140.473 11.6092H130.34L132.904 9.05322H143.037L140.473 11.6092Z" fill="white"/>
<path d="M140.473 19.5679H130.34L132.904 17.0132H143.037" fill="white"/>
<path d="M132.904 15.5887H143.037L140.473 13.0327H130.34" fill="white"/>
</g>
<g filter="url(#filter6_dii_734_3381)">
<path d="M156.192 6.44092C156.192 4.66231 157.634 3.22046 159.413 3.22046H175.515C177.294 3.22046 178.736 4.66231 178.736 6.44092V22.5432C178.736 24.3218 177.294 25.7637 175.515 25.7637H159.413C157.634 25.7637 156.192 24.3218 156.192 22.5432V6.44092Z" fill="#0D0D0D"/>
<g clip-path="url(#clip3_734_3381)">
<path d="M167.118 11.6623L163.659 9.72792C163.622 9.70713 163.591 9.6768 163.569 9.64006C163.548 9.60331 163.537 9.56148 163.537 9.51887C163.537 9.47627 163.548 9.43443 163.569 9.39768C163.591 9.36094 163.622 9.33061 163.659 9.30982L167.118 7.37414C167.165 7.34749 167.219 7.3335 167.274 7.3335C167.329 7.3335 167.382 7.34749 167.43 7.37414L170.889 9.30982C170.926 9.33061 170.957 9.36094 170.978 9.39768C171 9.43443 171.011 9.47627 171.011 9.51887C171.011 9.56148 171 9.60331 170.978 9.64006C170.957 9.6768 170.926 9.70713 170.889 9.72792L167.43 11.6623C167.382 11.6889 167.329 11.7029 167.274 11.7029C167.219 11.7029 167.165 11.6889 167.118 11.6623Z" fill="white"/>
<path d="M162.757 14.3654V10.5523C162.757 10.5104 162.768 10.4692 162.789 10.4328C162.809 10.3965 162.839 10.3662 162.875 10.345C162.912 10.3239 162.953 10.3126 162.995 10.3123C163.036 10.3119 163.078 10.3226 163.114 10.3432L166.669 12.3371C166.719 12.3651 166.76 12.4057 166.788 12.4548C166.817 12.5038 166.832 12.5595 166.832 12.6163V16.4294C166.832 16.4713 166.822 16.5125 166.801 16.5489C166.78 16.5853 166.751 16.6156 166.714 16.6368C166.678 16.658 166.637 16.6693 166.596 16.6696C166.554 16.6699 166.512 16.6592 166.476 16.6385L162.92 14.6446C162.87 14.6167 162.829 14.5761 162.8 14.527C162.772 14.478 162.757 14.4222 162.757 14.3654Z" fill="white"/>
<path d="M162.757 19.7372V15.9241C162.757 15.8822 162.768 15.841 162.789 15.8047C162.809 15.7683 162.839 15.738 162.875 15.7169C162.912 15.6957 162.953 15.6844 162.995 15.6841C163.036 15.6838 163.078 15.6944 163.114 15.715L166.669 17.7103C166.719 17.7379 166.76 17.7782 166.788 17.827C166.817 17.8759 166.832 17.9315 166.832 17.9881V21.8026C166.832 21.8443 166.821 21.8852 166.8 21.9214C166.78 21.9576 166.75 21.9877 166.714 22.0088C166.678 22.03 166.637 22.0413 166.595 22.0418C166.554 22.0423 166.513 22.0319 166.476 22.0116L162.92 20.0164C162.87 19.9885 162.829 19.9479 162.8 19.8989C162.772 19.8498 162.757 19.794 162.757 19.7372Z" fill="white"/>
<path d="M171.791 14.3654V10.5522C171.791 10.5104 171.781 10.4692 171.76 10.4328C171.739 10.3963 171.709 10.366 171.673 10.3448C171.637 10.3236 171.596 10.3123 171.554 10.312C171.513 10.3117 171.471 10.3225 171.435 10.3432L167.879 12.3371C167.829 12.3651 167.788 12.4057 167.76 12.4547C167.731 12.5038 167.716 12.5595 167.716 12.6162V16.4294C167.716 16.4713 167.727 16.5125 167.747 16.5488C167.768 16.5852 167.798 16.6154 167.834 16.6366C167.87 16.6578 167.912 16.6691 167.953 16.6694C167.995 16.6697 168.037 16.659 168.073 16.6384L171.629 14.6445C171.679 14.6164 171.72 14.5758 171.748 14.5268C171.776 14.4777 171.791 14.422 171.791 14.3654Z" fill="white"/>
<path d="M173.093 19.0239V15.2095C173.093 15.1678 173.082 15.1268 173.061 15.0906C173.04 15.0545 173.011 15.0243 172.975 15.0032C172.939 14.9821 172.898 14.9707 172.856 14.9702C172.814 14.9697 172.773 14.9802 172.737 15.0004L167.88 17.7101C167.83 17.7374 167.789 17.7777 167.76 17.8265C167.731 17.8754 167.716 17.9312 167.716 17.988V21.8038C167.716 21.8455 167.727 21.8864 167.747 21.9226C167.768 21.9588 167.798 21.9889 167.834 22.01C167.87 22.0312 167.911 22.0425 167.952 22.043C167.994 22.0435 168.035 22.0331 168.072 22.0128L172.929 19.3031C172.979 19.2755 173.02 19.235 173.049 19.1859C173.078 19.1368 173.093 19.0809 173.093 19.0239Z" fill="white"/>
</g>
</g>
</g>
<rect x="0.120828" y="0.120767" width="184.13" height="28.7426" rx="4.70993" stroke="#5E18C6" stroke-width="0.241535"/>
</g>
<g filter="url(#filter7_i_734_3381)">
<g clip-path="url(#clip4_734_3381)">
<rect y="33.0098" width="151.362" height="28.9842" rx="4.83069" fill="#0D0D0D"/>
<g filter="url(#filter8_dii_734_3381)">
<path d="M3.22046 39.4507C3.22046 37.6721 4.66231 36.2302 6.44092 36.2302H22.5432C24.3218 36.2302 25.7637 37.6721 25.7637 39.4507V55.553C25.7637 57.3316 24.3218 58.7735 22.5432 58.7735H6.44092C4.66231 58.7735 3.22046 57.3316 3.22046 55.553V39.4507Z" fill="#0D0D0D"/>
<g clip-path="url(#clip5_734_3381)">
<path d="M14.9448 40.2961H9.21758C8.92736 40.2961 8.64902 40.4114 8.4438 40.6167C8.23858 40.8219 8.12329 41.1002 8.12329 41.3904V52.91C8.12329 53.0537 8.1516 53.196 8.20659 53.3287C8.26158 53.4615 8.34219 53.5821 8.4438 53.6837C8.54542 53.7854 8.66605 53.866 8.79882 53.921C8.93158 53.976 9.07388 54.0043 9.21758 54.0043H14.9448C15.8449 54.0043 16.7362 53.827 17.5677 53.4825C18.3993 53.1381 19.1549 52.6332 19.7913 51.9967C20.4278 51.3603 20.9327 50.6047 21.2771 49.7731C21.6216 48.9416 21.7989 48.0503 21.7989 47.1502C21.7989 46.2501 21.6216 45.3588 21.2771 44.5273C20.9327 43.6957 20.4278 42.9401 19.7913 42.3036C19.1549 41.6672 18.3993 41.1623 17.5677 40.8179C16.7362 40.4734 15.8449 40.2961 14.9448 40.2961ZM11.3798 43.4767C11.5159 43.2429 11.7389 43.0724 12.0001 43.0021C12.2614 42.9319 12.5398 42.9676 12.7748 43.1016L17.3256 45.7258C17.2317 45.7577 17.1409 45.7982 17.0543 45.8467L15.2424 46.8929L11.7534 44.8779C11.6366 44.8106 11.5343 44.721 11.4522 44.6141C11.3702 44.5073 11.31 44.3853 11.2752 44.2551C11.2403 44.125 11.2315 43.9892 11.2492 43.8557C11.2669 43.7221 11.3107 43.5933 11.3783 43.4767H11.3798ZM13.291 50.4269C13.2963 50.5649 13.2738 50.7025 13.2247 50.8316C13.1756 50.9607 13.1009 51.0785 13.0052 51.1781C12.9094 51.2776 12.7946 51.3568 12.6675 51.4109C12.5404 51.465 12.4037 51.4928 12.2656 51.4928C12.1275 51.4928 11.9909 51.465 11.8638 51.4109C11.7367 51.3568 11.6219 51.2776 11.5261 51.1781C11.4304 51.0785 11.3557 50.9607 11.3066 50.8316C11.2575 50.7025 11.235 50.5649 11.2403 50.4269V45.1817C11.3143 45.246 11.3942 45.3031 11.479 45.3522L13.291 46.3985V50.4269ZM18.3532 48.1019L13.8102 50.7152C13.829 50.6187 13.8383 50.5206 13.8381 50.4222V48.3344L17.3287 46.3194C17.5642 46.1835 17.8441 46.1468 18.1067 46.2173C18.3694 46.2878 18.5932 46.4597 18.7291 46.6953C18.865 46.9308 18.9017 47.2107 18.8312 47.4733C18.7607 47.736 18.5888 47.9598 18.3532 48.0957V48.1019Z" fill="white"/>
</g>
</g>
<g filter="url(#filter9_dii_734_3381)">
<path d="M33.8149 39.4507C33.8149 37.6721 35.2567 36.2302 37.0353 36.2302H53.1376C54.9163 36.2302 56.3581 37.6721 56.3581 39.4507V55.553C56.3581 57.3316 54.9163 58.7735 53.1377 58.7735H37.0353C35.2567 58.7735 33.8149 57.3316 33.8149 55.553V39.4507Z" fill="#0D0D0D"/>
<path d="M47.1539 44.9473L49.6067 41.1062H47.7364L45.2655 44.9473H44.2431L41.7722 41.1062H39.9019L42.3546 44.9473H38.885V46.4587H50.6235V44.9473H47.1539Z" fill="white"/>
<path d="M50.6235 47.8806H38.885V49.3919H42.3546L39.9019 53.2331H41.7722L44.2431 49.3919H45.2655L47.7364 53.2331H49.6067L47.1539 49.3919H50.6235V47.8806Z" fill="white"/>
</g>
<g filter="url(#filter10_dii_734_3381)">
<g clip-path="url(#clip6_734_3381)">
<path d="M64.4092 39.4507C64.4092 37.6721 65.8511 36.2302 67.6297 36.2302H83.732C85.5106 36.2302 86.9525 37.6721 86.9525 39.4507V55.553C86.9525 57.3316 85.5106 58.7735 83.732 58.7735H67.6297C65.8511 58.7735 64.4092 57.3316 64.4092 55.553V39.4507Z" fill="#0D0D0D"/>
<g filter="url(#filter11_d_734_3381)">
<path d="M80.4842 48.5751C79.9678 47.4586 78.6907 47.0175 78.6907 47.0175C78.6907 47.0175 80.3 46.1913 79.9468 44.5695C79.7194 43.5115 78.7605 42.448 76.9754 42.4215V40.8862H75.3857V42.4215H74.2287V40.8862H72.6404V42.4215H70.6459V43.8702H71.5671C71.6166 43.8702 71.6656 43.88 71.7113 43.8989C71.757 43.9179 71.7986 43.9456 71.8336 43.9806C71.8686 44.0156 71.8963 44.0571 71.9152 44.1029C71.9342 44.1486 71.9439 44.1976 71.9439 44.2471V50.4998C71.9439 50.6108 71.8998 50.7173 71.8213 50.7959C71.7428 50.8744 71.6363 50.9185 71.5252 50.9185H70.9767L70.6459 52.4775H72.6404V54.1174H74.2287V52.4775H75.3857V54.1174H76.974V52.4775H77.2811C80.3558 52.4775 81.182 50.1118 80.4842 48.5751ZM75.8463 43.8702C76.6544 43.8702 77.4039 44.3908 77.4248 45.1892C77.4458 45.9875 76.7842 46.677 75.9063 46.6881C75.0982 46.6979 74.2315 46.6881 74.2315 46.6881V43.8702C74.2315 43.8702 74.9991 43.8702 75.8463 43.8702ZM76.3208 50.9143C75.4834 50.9297 74.2273 50.9143 74.2273 50.9143V47.9833C74.2273 47.9833 75.3871 48.0001 76.2524 47.9833C77.2936 47.9666 78.0599 48.4523 78.0668 49.3693C78.0738 50.2862 77.45 50.8962 76.3208 50.9171V50.9143Z" fill="white"/>
</g>
</g>
</g>
<g filter="url(#filter12_dii_734_3381)">
<path d="M95.0036 39.4507C95.0036 37.6721 96.4455 36.2302 98.2241 36.2302H114.326C116.105 36.2302 117.547 37.6721 117.547 39.4507V55.553C117.547 57.3316 116.105 58.7735 114.326 58.7735H98.2241C96.4455 58.7735 95.0036 57.3316 95.0036 55.553V39.4507Z" fill="#0D0D0D"/>
<g clip-path="url(#clip7_734_3381)">
<g filter="url(#filter13_d_734_3381)">
<path d="M111.536 45.9201L109.955 47.5011L111.536 49.0822L113.117 47.5011L111.536 45.9201Z" fill="white"/>
<path d="M101.016 45.921L99.4345 47.502L101.016 49.083L102.597 47.502L101.016 45.921Z" fill="white"/>
<path d="M106.275 51.1825L103.655 48.5618L102.074 50.1425L106.275 54.344L110.477 50.1425L108.896 48.5618L106.275 51.1825Z" fill="white"/>
<path d="M106.275 43.8221L108.896 46.4428L110.477 44.8621L106.275 40.6606L102.074 44.8621L103.655 46.4428L106.275 43.8221Z" fill="white"/>
<path d="M106.274 45.9408L104.713 47.502L106.274 49.0632L107.836 47.502L106.274 45.9408Z" fill="white"/>
</g>
</g>
</g>
<g filter="url(#filter14_dii_734_3381)">
<path d="M125.598 39.4507C125.598 37.6721 127.04 36.2302 128.818 36.2302H144.921C146.699 36.2302 148.141 37.6721 148.141 39.4507V55.553C148.141 57.3316 146.699 58.7735 144.921 58.7735H128.818C127.04 58.7735 125.598 57.3316 125.598 55.553V39.4507Z" fill="#0D0D0D"/>
<g clip-path="url(#clip8_734_3381)">
<path d="M138.476 41.9949C138.496 41.9744 138.512 41.95 138.523 41.9231C138.533 41.8962 138.538 41.8675 138.536 41.8388C138.535 41.81 138.528 41.7818 138.515 41.756C138.502 41.7302 138.484 41.7073 138.462 41.6888C137.909 41.2157 137.198 40.9687 136.471 40.9974C135.744 41.026 135.055 41.3281 134.541 41.8433L130.209 46.1736C129.696 46.6873 129.395 47.3754 129.367 48.101C129.338 48.8265 129.584 49.5363 130.055 50.0888C130.074 50.1109 130.096 50.1291 130.122 50.142C130.148 50.1549 130.176 50.1623 130.205 50.1638C130.234 50.1652 130.263 50.1607 130.29 50.1505C130.317 50.1402 130.342 50.1245 130.363 50.1043L138.476 41.9949Z" fill="white"/>
<path d="M143.124 46.3378L140.902 44.116C140.631 43.8452 140.264 43.6931 139.881 43.6931C139.498 43.6931 139.131 43.8452 138.86 44.116L131.608 51.3681C131.57 51.4071 131.548 51.4595 131.548 51.5141C131.548 51.5687 131.57 51.6211 131.608 51.66L132.48 52.5315C132.75 52.8022 133.118 52.9543 133.5 52.9543C133.883 52.9543 134.251 52.8022 134.521 52.5315L139.675 47.3779C139.694 47.3586 139.717 47.3433 139.742 47.3329C139.767 47.3224 139.794 47.317 139.821 47.317C139.848 47.317 139.875 47.3224 139.9 47.3329C139.925 47.3433 139.948 47.3586 139.967 47.3779L140.038 47.4487C140.308 47.7195 140.46 48.0864 140.46 48.469C140.46 48.8515 140.308 49.2185 140.038 49.4892L134.894 54.6329C134.874 54.6537 134.858 54.6785 134.848 54.7057C134.837 54.733 134.833 54.762 134.835 54.7911C134.836 54.8201 134.844 54.8485 134.857 54.8745C134.87 54.9004 134.889 54.9233 134.911 54.9418C135.465 55.3995 136.17 55.6342 136.888 55.5998C137.605 55.5655 138.284 55.2647 138.792 54.7562L143.124 50.4244C143.393 50.1562 143.606 49.8377 143.751 49.4871C143.896 49.1365 143.971 48.7607 143.971 48.3811C143.971 48.0016 143.896 47.6257 143.751 47.2751C143.606 46.9245 143.393 46.606 143.124 46.3378Z" fill="white"/>
</g>
</g>
</g>
<rect x="0.201279" y="33.211" width="150.959" height="28.5816" rx="4.62941" stroke="#5E18C6" stroke-width="0.402558"/>
</g>
<g filter="url(#filter15_i_734_3381)">
<g clip-path="url(#clip9_734_3381)">
<rect y="66.0195" width="176.706" height="28.9842" rx="4.83069" fill="#0D0D0D"/>
<g filter="url(#filter16_dii_734_3381)">
<path d="M3.22046 72.4605C3.22046 70.6818 4.66231 69.24 6.44092 69.24H22.5432C24.3218 69.24 25.7637 70.6818 25.7637 72.4605V88.5628C25.7637 90.3414 24.3218 91.7832 22.5432 91.7832H6.44092C4.66231 91.7832 3.22046 90.3414 3.22046 88.5628V72.4605Z" fill="#0D0D0D"/>
<g clip-path="url(#clip10_734_3381)">
<path d="M14.4921 76.9854C13.7947 76.9854 13.1129 77.1922 12.533 77.5796C11.9531 77.9671 11.5011 78.5178 11.2342 79.1622C10.9673 79.8065 10.8975 80.5156 11.0336 81.1996C11.1696 81.8836 11.5055 82.5119 11.9986 83.0051C12.4918 83.4983 13.1201 83.8341 13.8042 83.9702C14.4882 84.1062 15.1972 84.0364 15.8416 83.7695C16.4859 83.5026 17.0366 83.0506 17.4241 82.4707C17.8116 81.8908 18.0184 81.2091 18.0184 80.5116C18.0172 79.5768 17.6453 78.6805 16.9843 78.0195C16.3232 77.3584 15.427 76.9865 14.4921 76.9854ZM14.4921 82.9429C14.0113 82.9429 13.5412 82.8003 13.1414 82.5332C12.7416 82.266 12.4299 81.8863 12.2459 81.442C12.0619 80.9978 12.0137 80.5089 12.1076 80.0373C12.2014 79.5657 12.4329 79.1325 12.7729 78.7925C13.113 78.4525 13.5462 78.2209 14.0178 78.1271C14.4894 78.0333 14.9783 78.0814 15.4225 78.2654C15.8668 78.4495 16.2465 78.7611 16.5136 79.1609C16.7808 79.5607 16.9234 80.0308 16.9234 80.5116C16.9226 81.1562 16.6662 81.7742 16.2104 82.23C15.7546 82.6857 15.1367 82.9421 14.4921 82.9429Z" fill="white"/>
<path d="M14.4921 75.7543C15.1842 75.7536 15.8608 75.5495 16.4378 75.1674C17.0149 74.7853 17.4669 74.2421 17.7377 73.6052C17.4066 73.4489 17.0646 73.3169 16.7143 73.2104C16.5244 73.6415 16.2132 74.008 15.8186 74.2654C15.4241 74.5227 14.9632 74.6597 14.4921 74.6597C14.0211 74.6597 13.5602 74.5227 13.1656 74.2654C12.771 74.008 12.4598 73.6415 12.2699 73.2104C11.9196 73.3169 11.5776 73.4489 11.2465 73.6052C11.5175 74.242 11.9695 74.7851 12.5465 75.1672C13.1236 75.5492 13.8001 75.7534 14.4921 75.7543Z" fill="white"/>
<path d="M14.4921 85.269C13.8 85.2697 13.1234 85.4738 12.5464 85.8559C11.9694 86.238 11.5173 86.7813 11.2465 87.4181C11.5776 87.5745 11.9196 87.7064 12.2699 87.8129C12.4598 87.3818 12.771 87.0153 13.1656 86.758C13.5602 86.5007 14.0211 86.3636 14.4921 86.3636C14.9632 86.3636 15.4241 86.5007 15.8186 86.758C16.2132 87.0153 16.5244 87.3818 16.7143 87.8129C17.0646 87.7064 17.4066 87.5745 17.7377 87.4181C17.4669 86.7813 17.0149 86.238 16.4378 85.8559C15.8608 85.4738 15.1842 85.2697 14.4921 85.269Z" fill="white"/>
<path d="M10.3723 78.133C10.717 77.5332 10.8781 76.8455 10.8358 76.155C10.7934 75.4645 10.5494 74.8017 10.134 74.2485C9.83383 74.458 9.549 74.6886 9.28163 74.9386C9.55896 75.3188 9.71993 75.7713 9.74498 76.2412C9.77003 76.7111 9.65809 77.1782 9.42275 77.5857C9.18741 77.9932 8.8388 78.3236 8.41926 78.5368C7.99973 78.75 7.52732 78.8367 7.05942 78.7865C6.97676 79.1425 6.92008 79.5041 6.88983 79.8684C7.02999 79.8859 7.1711 79.8947 7.31234 79.8947C7.93216 79.8956 8.54129 79.7333 9.07845 79.424C9.6156 79.1148 10.0618 78.6695 10.3723 78.133Z" fill="white"/>
<path d="M20.7537 81.2427C20.1963 81.392 19.684 81.6759 19.262 82.0696C18.8399 82.4632 18.5211 82.9545 18.3334 83.5002C18.1457 84.046 18.0949 84.6295 18.1856 85.1994C18.2762 85.7694 18.5054 86.3083 18.8532 86.7689C19.1533 86.5594 19.4381 86.3288 19.7055 86.0789C19.4729 85.7599 19.3215 85.3891 19.2644 84.9985C19.2072 84.608 19.246 84.2093 19.3774 83.8371C19.5089 83.4649 19.7289 83.1302 20.0186 82.8621C20.3084 82.594 20.659 82.4005 21.0403 82.2982C21.3291 82.2196 21.6302 82.1963 21.9277 82.2295C22.0104 81.8735 22.067 81.5119 22.0973 81.1476C21.6475 81.0923 21.1912 81.1245 20.7537 81.2427Z" fill="white"/>
<path d="M10.3723 82.8904C10.0255 82.2918 9.51072 81.8081 8.89168 81.4994C8.27263 81.1907 7.57658 81.0704 6.88983 81.1536C6.92008 81.5178 6.97676 81.8794 7.05942 82.2354C7.35692 82.2022 7.658 82.2256 7.94684 82.3041C8.32811 82.4064 8.67876 82.5999 8.96847 82.868C9.25819 83.1362 9.47826 83.4708 9.60968 83.843C9.7411 84.2152 9.7799 84.6139 9.72275 85.0045C9.66559 85.395 9.51419 85.7658 9.28163 86.0848C9.549 86.3348 9.83383 86.5654 10.134 86.7749C10.5494 86.2217 10.7934 85.5588 10.8358 84.8684C10.8781 84.1779 10.717 83.4902 10.3723 82.8904Z" fill="white"/>
<path d="M18.6119 78.133C18.9224 78.6695 19.3686 79.1148 19.9057 79.424C20.4429 79.7333 21.052 79.8956 21.6719 79.8947C21.8131 79.8947 21.9542 79.8859 22.0944 79.8684C22.0641 79.5041 22.0074 79.1425 21.9248 78.7865C21.4569 78.8367 20.9845 78.75 20.5649 78.5368C20.1454 78.3236 19.7968 77.9932 19.5614 77.5857C19.3261 77.1782 19.2142 76.7111 19.2392 76.2412C19.2643 75.7713 19.4252 75.3188 19.7026 74.9386C19.4352 74.6886 19.1504 74.458 18.8502 74.2485C18.4348 74.8017 18.1908 75.4645 18.1484 76.155C18.1061 76.8455 18.2672 77.5332 18.6119 78.133Z" fill="white"/>
</g>
</g>
<path d="M41.1089 83.6807L35.9754 86.644C36.0073 86.6562 36.041 86.6628 36.0751 86.6633H52.1545C52.1868 86.6629 52.2188 86.6575 52.2494 86.6472L47.1047 83.6807H41.1089Z" fill="white"/>
<path d="M43.9065 72.2119C43.8828 72.2336 43.8622 72.2586 43.8454 72.2859L35.8097 86.2047C35.7948 86.2309 35.784 86.2591 35.7775 86.2884L40.9255 83.3219L43.9065 78.1433V72.2119Z" fill="white"/>
<path d="M52.4104 86.2047L44.3747 72.2859C44.3589 72.2583 44.3388 72.2333 44.3152 72.2119V78.1433L47.3074 83.3283L52.4442 86.3029C52.4391 86.2683 52.4277 86.2351 52.4104 86.2047Z" fill="white"/>
<path d="M66.6812 80.7597L72.0803 71.9417L77.4793 80.7597L72.0803 83.905L66.6812 80.7597Z" fill="white"/>
<path d="M72.0803 84.8957L77.3065 81.6511L72.0803 89.0814L66.7309 81.6511L72.0803 84.8957Z" fill="white"/>
<g filter="url(#filter17_dii_734_3381)">
<path d="M89.7538 72.4605C89.7538 70.6818 91.1957 69.24 92.9743 69.24H109.077C110.855 69.24 112.297 70.6818 112.297 72.4605V88.5628C112.297 90.3414 110.855 91.7832 109.077 91.7832H92.9743C91.1957 91.7832 89.7538 90.3414 89.7538 88.5628V72.4605Z" fill="#0D0D0D"/>
<g clip-path="url(#clip11_734_3381)">
<path d="M106.329 83.6203L101.948 85.9043V83.7079C102.738 83.4861 103.42 82.986 103.869 82.3002C104.319 81.6143 104.504 80.789 104.392 79.9768C104.28 79.1646 103.878 78.4203 103.26 77.8816C102.642 77.3429 101.85 77.0461 101.03 77.0461C100.21 77.0461 99.4179 77.3429 98.7999 77.8816C98.1818 78.4203 97.7796 79.1646 97.6676 79.9768C97.5556 80.789 97.7415 81.6143 98.1907 82.3002C98.64 82.986 99.3223 83.4861 100.112 83.7079V85.9043L95.731 83.6203C95.7034 83.6061 95.6804 83.5844 95.6647 83.5576C95.6489 83.5309 95.641 83.5003 95.6419 83.4693V82.2019H93.7945V83.6747C93.7937 83.9802 93.8772 84.28 94.0358 84.5412C94.1943 84.8024 94.4218 85.0148 94.6933 85.155L100.254 88.0538C100.492 88.1773 100.757 88.2418 101.025 88.2418C101.294 88.2418 101.559 88.1773 101.797 88.0538L107.358 85.155C107.631 85.0158 107.86 84.8038 108.02 84.5426C108.179 84.2814 108.264 83.981 108.264 83.6747V82.2019H106.418V83.4723C106.418 83.5028 106.41 83.5328 106.395 83.5589C106.379 83.5851 106.356 83.6063 106.329 83.6203ZM99.4681 80.4482C99.4669 80.1399 99.5572 79.8382 99.7276 79.5813C99.898 79.3244 100.141 79.1238 100.425 79.005C100.71 78.8862 101.023 78.8545 101.326 78.9139C101.628 78.9733 101.906 79.1212 102.125 79.3388C102.343 79.5563 102.492 79.8338 102.552 80.1361C102.613 80.4383 102.583 80.7518 102.465 81.0367C102.347 81.3216 102.148 81.5652 101.891 81.7366C101.635 81.908 101.334 81.9995 101.025 81.9995C100.613 81.9991 100.217 81.8349 99.9247 81.5429C99.6327 81.2509 99.4685 80.855 99.4681 80.4421V80.4482Z" fill="white"/>
<path d="M100.254 72.9693L94.6933 75.868C94.4218 76.0083 94.1943 76.2207 94.0358 76.4819C93.8772 76.743 93.7937 77.0428 93.7945 77.3484V78.8212H95.6328V77.5508C95.6319 77.5198 95.6398 77.4891 95.6556 77.4624C95.6714 77.4357 95.6944 77.414 95.722 77.3997L100.948 74.6807C100.972 74.6686 100.998 74.6622 101.024 74.6622C101.05 74.6622 101.076 74.6686 101.1 74.6807L106.326 77.3997C106.354 77.414 106.377 77.4357 106.392 77.4624C106.408 77.4891 106.416 77.5198 106.415 77.5508V78.8212H108.253V77.3484C108.254 77.0421 108.169 76.7417 108.009 76.4805C107.849 76.2192 107.62 76.0073 107.347 75.868L101.797 72.9693C101.559 72.8457 101.294 72.7812 101.025 72.7812C100.757 72.7812 100.492 72.8457 100.254 72.9693Z" fill="white"/>
</g>
</g>
<g filter="url(#filter18_dii_734_3381)">
<path d="M120.348 72.4605C120.348 70.6818 121.79 69.24 123.569 69.24H139.671C141.45 69.24 142.891 70.6818 142.891 72.4605V88.5628C142.891 90.3414 141.45 91.7832 139.671 91.7832H123.569C121.79 91.7832 120.348 90.3414 120.348 88.5628V72.4605Z" fill="#0D0D0D"/>
<path d="M132.258 85.0883H126.715L127.137 82.8511H131.507C134.955 82.8511 135.15 80.6139 135.387 78.7886C135.587 77.3055 134.759 76.4804 132.681 76.4804H128.263L128.646 74.2432H133.729C137.677 74.2432 138.095 76.6685 138.095 77.7108V78.2096C138.095 81.3798 136.566 85.0883 132.258 85.0883Z" fill="white"/>
<path d="M129.945 80.7797H124.734L125.076 79.4992C125.149 79.2229 125.312 78.9785 125.539 78.8043C125.765 78.63 126.043 78.5357 126.329 78.5359H131.54L131.198 79.8177C131.124 80.0935 130.961 80.3373 130.735 80.5113C130.508 80.6852 130.231 80.7795 129.945 80.7797Z" fill="white"/>
</g>
<g filter="url(#filter19_dii_734_3381)">
<path d="M150.943 72.4605C150.943 70.6818 152.384 69.24 154.163 69.24H170.265C172.044 69.24 173.486 70.6818 173.486 72.4605V88.5628C173.486 90.3414 172.044 91.7832 170.265 91.7832H154.163C152.384 91.7832 150.943 90.3414 150.943 88.5628V72.4605Z" fill="#0D0D0D"/>
<path d="M161.371 84.4697C161.276 84.4697 161.178 84.4697 161.079 84.4576C161.043 84.4544 161.01 84.4371 160.987 84.4095C160.964 84.382 160.953 84.3464 160.956 84.3106C160.959 84.2748 160.976 84.2418 161.004 84.2188C161.032 84.1958 161.067 84.1846 161.103 84.1879C161.585 84.2211 162.069 84.1621 162.529 84.0139C162.562 84.0029 162.598 84.0053 162.63 84.0207C162.661 84.036 162.686 84.0631 162.698 84.0961C162.71 84.1291 162.708 84.1655 162.694 84.1975C162.679 84.2295 162.653 84.2546 162.62 84.2674C162.217 84.399 161.796 84.4673 161.371 84.4697Z" fill="white"/>
<path d="M162.574 85.3006C162.428 85.3042 162.281 85.2916 162.137 85.2628C162.12 85.2591 162.103 85.2519 162.088 85.2416C162.073 85.2312 162.06 85.218 162.051 85.2026C162.041 85.1873 162.034 85.1701 162.032 85.1522C162.029 85.1343 162.029 85.1159 162.034 85.0983C162.038 85.0807 162.046 85.0641 162.057 85.0496C162.068 85.0351 162.082 85.023 162.097 85.0139C162.113 85.0048 162.13 84.999 162.148 84.9968C162.166 84.9946 162.185 84.9961 162.202 85.0011C162.325 85.0241 162.45 85.0341 162.574 85.0308C162.699 85.0336 162.824 85.0237 162.947 85.0011C162.964 84.9961 162.982 84.9946 163 84.9968C163.018 84.999 163.036 85.0048 163.052 85.0139C163.067 85.023 163.081 85.0351 163.092 85.0496C163.103 85.0641 163.111 85.0807 163.115 85.0983C163.119 85.1159 163.12 85.1343 163.117 85.1522C163.114 85.1701 163.108 85.1873 163.098 85.2026C163.089 85.218 163.076 85.2312 163.061 85.2416C163.046 85.2519 163.029 85.2591 163.011 85.2628C162.868 85.2916 162.721 85.3042 162.574 85.3006Z" fill="white"/>
<path d="M162.574 84.2754C162.539 84.2754 162.504 84.2612 162.479 84.2359C162.454 84.2106 162.44 84.1763 162.44 84.1406V83.3785C162.44 83.3428 162.454 83.3084 162.479 83.2832C162.504 83.2579 162.539 83.2437 162.574 83.2437C162.61 83.2437 162.644 83.2579 162.67 83.2832C162.695 83.3084 162.709 83.3428 162.709 83.3785V84.1406C162.709 84.1763 162.695 84.2106 162.67 84.2359C162.644 84.2612 162.61 84.2754 162.574 84.2754Z" fill="white"/>
<path d="M162.564 82.1809C162.193 82.1809 161.812 82.2982 161.803 82.5774C161.785 83.0765 162.232 83.5809 162.564 83.5687C162.905 83.5809 163.363 83.0765 163.346 82.5774C163.335 82.2996 162.945 82.1809 162.564 82.1809Z" fill="white"/>
<path d="M163.777 84.4697C163.353 84.4672 162.932 84.399 162.529 84.2673C162.511 84.2617 162.496 84.2527 162.482 84.2408C162.468 84.2289 162.457 84.2145 162.45 84.1982C162.442 84.182 162.437 84.1644 162.436 84.1464C162.435 84.1284 162.438 84.1104 162.444 84.0934C162.45 84.0764 162.46 84.0609 162.472 84.0476C162.484 84.0344 162.499 84.0238 162.515 84.0163C162.532 84.0089 162.55 84.0049 162.568 84.0044C162.586 84.004 162.604 84.0072 162.62 84.0138C163.08 84.1608 163.564 84.2198 164.046 84.1878C164.082 84.1846 164.117 84.1957 164.145 84.2187C164.172 84.2417 164.19 84.2747 164.193 84.3105C164.196 84.3463 164.185 84.3819 164.162 84.4094C164.139 84.437 164.106 84.4543 164.07 84.4575C163.97 84.4656 163.873 84.4697 163.777 84.4697Z" fill="white"/>
<path d="M163.972 84.324L163.461 84.3321L163.427 85.3436L163.972 84.324Z" fill="white"/>
<path d="M161.177 84.324L161.722 85.3436L161.688 84.3321L161.177 84.324Z" fill="white"/>
<path d="M167.377 78.9749C167.377 78.9749 168.373 75.9362 168.147 74.8424C168.025 74.249 167.712 73.9981 167.04 74.2584C165.934 74.6873 164.902 76.3098 164.902 76.3098C164.139 76.1255 163.359 76.0242 162.574 76.0077C161.79 76.0242 161.009 76.1255 160.247 76.3098C160.247 76.3098 159.215 74.6913 158.109 74.2584C157.434 73.9981 157.124 74.249 157.001 74.8424C156.775 75.9362 157.772 78.9749 157.772 78.9749C157.518 79.568 157.297 80.1745 157.109 80.7916C156.966 81.3311 156.989 82.2321 156.989 82.2321V82.3319C156.981 82.9935 157.199 83.6381 157.608 84.1581C158.651 85.5365 161.134 86.6154 162.574 86.6154C164.015 86.6154 166.498 85.5365 167.539 84.1581C167.948 83.638 168.167 82.9935 168.158 82.3319V82.2321C168.158 82.2321 168.181 81.3271 168.038 80.7916C167.851 80.1745 167.63 79.568 167.377 78.9749ZM164.597 79.1866C164.639 78.9506 164.847 78.631 165.153 78.631C165.423 78.631 165.755 78.9776 165.761 79.2082C165.768 79.4389 165.492 79.5495 165.169 79.536C164.847 79.5225 164.558 79.424 164.597 79.1866ZM164.749 80.387C165.257 80.0916 165.883 79.8543 166.049 80.0053C166.215 80.1564 166.207 80.8146 165.333 81.1612C164.561 81.4646 163.951 81.3446 163.88 81.203C163.76 80.9589 164.463 80.557 164.751 80.387H164.749ZM159.99 78.6337C160.296 78.6337 160.504 78.9533 160.546 79.1893C160.588 79.4254 160.295 79.5238 159.974 79.5387C159.653 79.5535 159.375 79.4402 159.382 79.2109C159.389 78.9816 159.718 78.631 159.993 78.631L159.99 78.6337ZM159.097 80.0067C159.263 79.8556 159.889 80.093 160.398 80.3884C160.689 80.5583 161.389 80.9602 161.266 81.2043C161.195 81.3392 160.592 81.466 159.814 81.1625C158.94 80.8159 158.933 80.155 159.097 80.0067ZM167.325 83.9976C166.351 85.2964 163.923 86.3457 162.574 86.3457C161.226 86.3457 158.805 85.2977 157.826 83.9976C157.465 83.5456 157.266 82.9856 157.262 82.4074C157.792 82.3846 158.323 82.4341 158.84 82.5544C159.354 82.6974 160.07 83.3947 160.078 83.4014L160.238 83.5592L160.302 83.3434C160.302 83.334 160.58 82.3993 161.064 81.9947C161.459 81.6616 161.926 81.5119 162.574 81.5119C163.223 81.5119 163.69 81.6616 164.085 81.9947C164.569 82.3993 164.844 83.334 164.847 83.3434L164.91 83.5592L165.071 83.4014C165.079 83.4014 165.795 82.6974 166.309 82.5544C166.826 82.4348 167.357 82.3853 167.887 82.4074C167.882 82.9852 167.684 83.5446 167.323 83.9962L167.325 83.9976Z" fill="white"/>
</g>
</g>
<rect x="0.201279" y="66.2208" width="176.304" height="28.5816" rx="4.62941" stroke="#5E18C6" stroke-width="0.402558"/>
</g>
<g filter="url(#filter20_i_734_3381)">
<g clip-path="url(#clip12_734_3381)">
<rect x="6.10352e-05" y="99.0293" width="184.371" height="28.9842" rx="4.83069" fill="#0D0D0D"/>
<g filter="url(#filter21_dii_734_3381)">
<path d="M3.22052 105.47C3.22052 103.692 4.66237 102.25 6.44098 102.25H22.5433C24.3219 102.25 25.7638 103.692 25.7638 105.47V121.573C25.7638 123.351 24.3219 124.793 22.5433 124.793H6.44098C4.66237 124.793 3.22052 123.351 3.22052 121.573V105.47Z" fill="#0D0D0D"/>
<path d="M19.7681 111.15V108.623L18.4406 107.296H10.88L9.55249 108.623V113.644L10.88 114.973H15.9347V117.511H13.3859V116.234H9.55249V118.756L10.88 120.084H18.4406L19.7681 118.756V113.741L18.4406 112.412H13.3859V109.868H15.9347V111.15H19.7681Z" fill="white"/>
</g>
<g filter="url(#filter22_dii_734_3381)">
<path d="M33.8149 105.47C33.8149 103.692 35.2567 102.25 37.0353 102.25H53.1376C54.9163 102.25 56.3581 103.692 56.3581 105.47V121.573C56.3581 123.351 54.9163 124.793 53.1377 124.793H37.0353C35.2567 124.793 33.8149 123.351 33.8149 121.573V105.47Z" fill="#0D0D0D"/>
<path d="M38.7074 108.787L44.9764 106.432L50.7741 108.503L44.505 110.827V119.919L38.7074 117.878V108.787Z" fill="white"/>
<path d="M44.9764 111.176L50.7741 108.973V118.17L44.9764 116.128V111.176Z" fill="white"/>
</g>
<g filter="url(#filter23_dii_734_3381)">
<path d="M64.4092 105.47C64.4092 103.692 65.8511 102.25 67.6297 102.25H83.732C85.5106 102.25 86.9525 103.692 86.9525 105.47V121.573C86.9525 123.351 85.5106 124.793 83.732 124.793H67.6297C65.8511 124.793 64.4092 123.351 64.4092 121.573V105.47Z" fill="#0D0D0D"/>
<path d="M80.0879 116.245V114.453L78.6302 115.294V117.088L80.0879 116.245Z" fill="white"/>
<path d="M80.0879 111.648L78.5756 110.774L76.1064 112.201L73.6371 110.774L72.1248 111.648V113.237L74.6357 114.687V117.696L76.1064 118.545L77.577 117.696V114.687L80.0879 113.237V111.648Z" fill="white"/>
<path d="M82.6132 111.779V110.19L81.1009 109.317L79.6288 110.166L81.1411 111.04V112.628L82.6132 111.779Z" fill="white"/>
<path d="M71.0718 112.628V111.04L72.584 110.166L71.1119 109.317L69.5997 110.19V111.779L71.0718 112.628Z" fill="white"/>
<path d="M72.1248 116.245L73.5826 117.088V115.294L72.1248 114.453V116.245Z" fill="white"/>
<path d="M77.5771 118.913L76.1065 119.762L74.6358 118.913V120.611L76.1065 121.461L77.5771 120.611V118.913Z" fill="white"/>
<path d="M77.5225 110.166L76.1064 109.348L74.6902 110.166L76.1064 110.984L77.5225 110.166Z" fill="white"/>
<path d="M81.1411 113.845V116.854L78.6302 118.304V120.003L82.6132 117.703V112.996L81.1411 113.845Z" fill="white"/>
<path d="M73.5826 118.304L71.0718 116.854V113.845L69.5997 112.996V117.703L73.5826 120.003V118.304Z" fill="white"/>
<path d="M73.6371 109.558L76.1063 108.133L78.5756 109.558L80.0477 108.708L76.1063 106.433L72.165 108.708L73.6371 109.558Z" fill="white"/>
</g>
<g filter="url(#filter24_i_734_3381)">
<rect x="95.0037" y="102.25" width="22.5432" height="22.5432" rx="3.28528" fill="#0B0909"/>
</g>
<g filter="url(#filter25_dii_734_3381)">
<path d="M125.598 105.47C125.598 103.692 127.04 102.25 128.819 102.25H144.921C146.699 102.25 148.141 103.692 148.141 105.47V121.573C148.141 123.351 146.699 124.793 144.921 124.793H128.819C127.04 124.793 125.598 123.351 125.598 121.573V105.47Z" fill="#0D0D0D"/>
<path d="M130.82 114.121V116.44C130.82 116.663 130.877 116.883 130.986 117.078C131.095 117.273 131.252 117.436 131.443 117.553L136.564 120.701C136.653 120.755 136.755 120.784 136.859 120.786C136.964 120.788 137.066 120.762 137.157 120.711C137.248 120.66 137.324 120.586 137.377 120.496C137.43 120.406 137.458 120.304 137.459 120.199V117.646C137.459 117.483 137.416 117.322 137.334 117.181C137.252 117.039 137.135 116.921 136.993 116.839L131.581 113.685C131.504 113.64 131.417 113.616 131.328 113.615C131.239 113.615 131.152 113.638 131.074 113.683C130.997 113.727 130.933 113.791 130.888 113.868C130.844 113.945 130.82 114.032 130.82 114.121Z" fill="white"/>
<path d="M133.295 110.258V113.44L138.163 116.368C138.273 116.434 138.364 116.527 138.427 116.639C138.491 116.751 138.524 116.878 138.524 117.006V119.947L139.937 119.117V113.851C139.937 113.689 139.895 113.53 139.814 113.389C139.733 113.249 139.617 113.132 139.477 113.05L133.993 109.857C133.922 109.816 133.842 109.795 133.761 109.794C133.679 109.794 133.599 109.816 133.528 109.856C133.458 109.897 133.399 109.955 133.358 110.026C133.317 110.097 133.295 110.177 133.295 110.258Z" fill="white"/>
<path d="M135.657 106.507V109.625L140.567 112.562C140.677 112.628 140.768 112.722 140.831 112.834C140.895 112.946 140.928 113.072 140.928 113.201V118.522L142.139 117.814C142.174 117.794 142.203 117.765 142.223 117.73C142.243 117.695 142.254 117.656 142.254 117.615L142.281 110.139C142.281 109.977 142.238 109.819 142.158 109.679C142.077 109.539 141.962 109.422 141.822 109.341L136.31 106.128C136.243 106.092 136.169 106.074 136.093 106.075C136.017 106.076 135.943 106.096 135.877 106.134C135.811 106.173 135.757 106.227 135.718 106.292C135.68 106.357 135.658 106.432 135.657 106.507Z" fill="white"/>
</g>
<g filter="url(#filter26_dii_734_3381)">
<path d="M156.192 105.47C156.192 103.692 157.634 102.25 159.413 102.25H175.515C177.294 102.25 178.736 103.692 178.736 105.47V121.573C178.736 123.351 177.294 124.793 175.515 124.793H159.413C157.634 124.793 156.192 123.351 156.192 121.573V105.47Z" fill="#0D0D0D"/>
<g clip-path="url(#clip13_734_3381)">
<path d="M172.123 118.58C171.012 119.39 168.715 120.965 167.864 121.547C167.848 121.557 167.83 121.562 167.811 121.56C167.792 121.558 167.774 121.55 167.76 121.537C167.746 121.524 167.737 121.507 167.735 121.488C167.732 121.469 167.736 121.45 167.745 121.433L172.277 114.041C172.531 114.366 172.735 114.727 172.881 115.113C173.272 116.119 173.444 117.615 172.123 118.58Z" fill="white"/>
<path d="M172.624 113.053C170.938 110.464 167.775 105.612 167.775 105.612C167.764 105.596 167.759 105.576 167.761 105.556C167.763 105.536 167.772 105.518 167.786 105.504C167.8 105.49 167.819 105.481 167.839 105.48C167.859 105.478 167.878 105.484 167.895 105.496L172.124 108.437C173.38 109.313 174.267 110.624 174.613 112.116C174.959 113.608 174.74 115.175 173.999 116.515C173.999 116.515 174.033 115.224 172.624 113.053Z" fill="white"/>
<path d="M162.806 108.462C163.916 107.653 166.213 106.077 167.064 105.496C167.08 105.485 167.099 105.481 167.118 105.482C167.137 105.484 167.154 105.492 167.168 105.505C167.182 105.518 167.191 105.536 167.194 105.554C167.196 105.573 167.193 105.592 167.183 105.609L162.651 113.002C162.394 112.677 162.188 112.316 162.04 111.929C161.656 110.923 161.484 109.428 162.806 108.462Z" fill="white"/>
<path d="M162.304 113.99C163.985 116.579 167.153 121.43 167.153 121.43C167.164 121.447 167.169 121.467 167.167 121.487C167.165 121.506 167.156 121.525 167.142 121.539C167.128 121.553 167.109 121.561 167.089 121.563C167.069 121.564 167.05 121.558 167.034 121.547L162.804 118.606C161.548 117.729 160.662 116.418 160.316 114.926C159.97 113.434 160.189 111.867 160.931 110.527C160.931 110.527 160.895 111.819 162.304 113.99Z" fill="white"/>
</g>
</g>
</g>
<rect x="0.20134" y="99.2306" width="183.969" height="28.5816" rx="4.62941" stroke="#5E18C6" stroke-width="0.402558"/>
</g>
<defs>
<filter id="filter0_i_734_3381" x="6.10352e-05" y="-0.644092" width="184.371" height="29.6282" filterUnits="userSpaceOnUse" color-interpolation-filters="sRGB">
<feFlood flood-opacity="0" result="BackgroundImageFix"/>
<feBlend mode="normal" in="SourceGraphic" in2="BackgroundImageFix" result="shape"/>
<feColorMatrix in="SourceAlpha" type="matrix" values="0 0 0 0 0 0 0 0 0 0 0 0 0 0 0 0 0 0 127 0" result="hardAlpha"/>
<feOffset dy="-0.805115"/>
<feGaussianBlur stdDeviation="0.322046"/>
<feComposite in2="hardAlpha" operator="arithmetic" k2="-1" k3="1"/>
<feColorMatrix type="matrix" values="0 0 0 0 0 0 0 0 0 0 0 0 0 0 0 0 0 0 0.26 0"/>
<feBlend mode="normal" in2="shape" result="effect1_innerShadow_734_3381"/>
</filter>
<filter id="filter1_dii_734_3381" x="-16.6658" y="-13.4454" width="62.3159" height="62.3159" filterUnits="userSpaceOnUse" color-interpolation-filters="sRGB">
<feFlood flood-opacity="0" result="BackgroundImageFix"/>
<feColorMatrix in="SourceAlpha" type="matrix" values="0 0 0 0 0 0 0 0 0 0 0 0 0 0 0 0 0 0 127 0" result="hardAlpha"/>
<feOffset dy="3.22046"/>
<feGaussianBlur stdDeviation="9.94318"/>
<feComposite in2="hardAlpha" operator="out"/>
<feColorMatrix type="matrix" values="0 0 0 0 0.367239 0 0 0 0 0.0947569 0 0 0 0 0.775962 0 0 0 0.6 0"/>
<feBlend mode="normal" in2="BackgroundImageFix" result="effect1_dropShadow_734_3381"/>
<feBlend mode="normal" in="SourceGraphic" in2="effect1_dropShadow_734_3381" result="shape"/>
<feColorMatrix in="SourceAlpha" type="matrix" values="0 0 0 0 0 0 0 0 0 0 0 0 0 0 0 0 0 0 127 0" result="hardAlpha"/>
<feOffset dx="0.483069" dy="0.805115"/>
<feGaussianBlur stdDeviation="0.362302"/>
<feComposite in2="hardAlpha" operator="arithmetic" k2="-1" k3="1"/>
<feColorMatrix type="matrix" values="0 0 0 0 0 0 0 0 0 0 0 0 0 0 0 0 0 0 0.25 0"/>
<feBlend mode="normal" in2="shape" result="effect2_innerShadow_734_3381"/>
<feColorMatrix in="SourceAlpha" type="matrix" values="0 0 0 0 0 0 0 0 0 0 0 0 0 0 0 0 0 0 127 0" result="hardAlpha"/>
<feOffset dy="-0.402558"/>
<feGaussianBlur stdDeviation="0.362302"/>
<feComposite in2="hardAlpha" operator="arithmetic" k2="-1" k3="1"/>
<feColorMatrix type="matrix" values="0 0 0 0 0 0 0 0 0 0 0 0 0 0 0 0 0 0 0.25 0"/>
<feBlend mode="normal" in2="effect2_innerShadow_734_3381" result="effect3_innerShadow_734_3381"/>
</filter>
<filter id="filter2_dii_734_3381" x="13.9285" y="-13.4454" width="62.3159" height="62.3159" filterUnits="userSpaceOnUse" color-interpolation-filters="sRGB">
<feFlood flood-opacity="0" result="BackgroundImageFix"/>
<feColorMatrix in="SourceAlpha" type="matrix" values="0 0 0 0 0 0 0 0 0 0 0 0 0 0 0 0 0 0 127 0" result="hardAlpha"/>
<feOffset dy="3.22046"/>
<feGaussianBlur stdDeviation="9.94318"/>
<feComposite in2="hardAlpha" operator="out"/>
<feColorMatrix type="matrix" values="0 0 0 0 0.367239 0 0 0 0 0.0947569 0 0 0 0 0.775962 0 0 0 0.6 0"/>
<feBlend mode="normal" in2="BackgroundImageFix" result="effect1_dropShadow_734_3381"/>
<feBlend mode="normal" in="SourceGraphic" in2="effect1_dropShadow_734_3381" result="shape"/>
<feColorMatrix in="SourceAlpha" type="matrix" values="0 0 0 0 0 0 0 0 0 0 0 0 0 0 0 0 0 0 127 0" result="hardAlpha"/>
<feOffset dx="0.483069" dy="0.805115"/>
<feGaussianBlur stdDeviation="0.362302"/>
<feComposite in2="hardAlpha" operator="arithmetic" k2="-1" k3="1"/>
<feColorMatrix type="matrix" values="0 0 0 0 0 0 0 0 0 0 0 0 0 0 0 0 0 0 0.25 0"/>
<feBlend mode="normal" in2="shape" result="effect2_innerShadow_734_3381"/>
<feColorMatrix in="SourceAlpha" type="matrix" values="0 0 0 0 0 0 0 0 0 0 0 0 0 0 0 0 0 0 127 0" result="hardAlpha"/>
<feOffset dy="-0.402558"/>
<feGaussianBlur stdDeviation="0.362302"/>
<feComposite in2="hardAlpha" operator="arithmetic" k2="-1" k3="1"/>
<feColorMatrix type="matrix" values="0 0 0 0 0 0 0 0 0 0 0 0 0 0 0 0 0 0 0.25 0"/>
<feBlend mode="normal" in2="effect2_innerShadow_734_3381" result="effect3_innerShadow_734_3381"/>
</filter>
<filter id="filter3_dii_734_3381" x="44.5229" y="-13.4454" width="62.3159" height="62.3159" filterUnits="userSpaceOnUse" color-interpolation-filters="sRGB">
<feFlood flood-opacity="0" result="BackgroundImageFix"/>
<feColorMatrix in="SourceAlpha" type="matrix" values="0 0 0 0 0 0 0 0 0 0 0 0 0 0 0 0 0 0 127 0" result="hardAlpha"/>
<feOffset dy="3.22046"/>
<feGaussianBlur stdDeviation="9.94318"/>
<feComposite in2="hardAlpha" operator="out"/>
<feColorMatrix type="matrix" values="0 0 0 0 0.367239 0 0 0 0 0.0947569 0 0 0 0 0.775962 0 0 0 0.6 0"/>
<feBlend mode="normal" in2="BackgroundImageFix" result="effect1_dropShadow_734_3381"/>
<feBlend mode="normal" in="SourceGraphic" in2="effect1_dropShadow_734_3381" result="shape"/>
<feColorMatrix in="SourceAlpha" type="matrix" values="0 0 0 0 0 0 0 0 0 0 0 0 0 0 0 0 0 0 127 0" result="hardAlpha"/>
<feOffset dx="0.483069" dy="0.805115"/>
<feGaussianBlur stdDeviation="0.362302"/>
<feComposite in2="hardAlpha" operator="arithmetic" k2="-1" k3="1"/>
<feColorMatrix type="matrix" values="0 0 0 0 0 0 0 0 0 0 0 0 0 0 0 0 0 0 0.25 0"/>
<feBlend mode="normal" in2="shape" result="effect2_innerShadow_734_3381"/>
<feColorMatrix in="SourceAlpha" type="matrix" values="0 0 0 0 0 0 0 0 0 0 0 0 0 0 0 0 0 0 127 0" result="hardAlpha"/>
<feOffset dy="-0.402558"/>
<feGaussianBlur stdDeviation="0.362302"/>
<feComposite in2="hardAlpha" operator="arithmetic" k2="-1" k3="1"/>
<feColorMatrix type="matrix" values="0 0 0 0 0 0 0 0 0 0 0 0 0 0 0 0 0 0 0.25 0"/>
<feBlend mode="normal" in2="effect2_innerShadow_734_3381" result="effect3_innerShadow_734_3381"/>
</filter>
<filter id="filter4_i_734_3381" x="95.0037" y="3.22046" width="22.5432" height="23.2003" filterUnits="userSpaceOnUse" color-interpolation-filters="sRGB">
<feFlood flood-opacity="0" result="BackgroundImageFix"/>
<feBlend mode="normal" in="SourceGraphic" in2="BackgroundImageFix" result="shape"/>
<feColorMatrix in="SourceAlpha" type="matrix" values="0 0 0 0 0 0 0 0 0 0 0 0 0 0 0 0 0 0 127 0" result="hardAlpha"/>
<feOffset dy="0.657055"/>
<feGaussianBlur stdDeviation="1.31411"/>
<feComposite in2="hardAlpha" operator="arithmetic" k2="-1" k3="1"/>
<feColorMatrix type="matrix" values="0 0 0 0 0 0 0 0 0 0 0 0 0 0 0 0 0 0 0.25 0"/>
<feBlend mode="normal" in2="shape" result="effect1_innerShadow_734_3381"/>
</filter>
<filter id="filter5_dii_734_3381" x="105.712" y="-13.4454" width="62.3159" height="62.3159" filterUnits="userSpaceOnUse" color-interpolation-filters="sRGB">
<feFlood flood-opacity="0" result="BackgroundImageFix"/>
<feColorMatrix in="SourceAlpha" type="matrix" values="0 0 0 0 0 0 0 0 0 0 0 0 0 0 0 0 0 0 127 0" result="hardAlpha"/>
<feOffset dy="3.22046"/>
<feGaussianBlur stdDeviation="9.94318"/>
<feComposite in2="hardAlpha" operator="out"/>
<feColorMatrix type="matrix" values="0 0 0 0 0.367239 0 0 0 0 0.0947569 0 0 0 0 0.775962 0 0 0 0.6 0"/>
<feBlend mode="normal" in2="BackgroundImageFix" result="effect1_dropShadow_734_3381"/>
<feBlend mode="normal" in="SourceGraphic" in2="effect1_dropShadow_734_3381" result="shape"/>
<feColorMatrix in="SourceAlpha" type="matrix" values="0 0 0 0 0 0 0 0 0 0 0 0 0 0 0 0 0 0 127 0" result="hardAlpha"/>
<feOffset dx="0.483069" dy="0.805115"/>
<feGaussianBlur stdDeviation="0.362302"/>
<feComposite in2="hardAlpha" operator="arithmetic" k2="-1" k3="1"/>
<feColorMatrix type="matrix" values="0 0 0 0 0 0 0 0 0 0 0 0 0 0 0 0 0 0 0.25 0"/>
<feBlend mode="normal" in2="shape" result="effect2_innerShadow_734_3381"/>
<feColorMatrix in="SourceAlpha" type="matrix" values="0 0 0 0 0 0 0 0 0 0 0 0 0 0 0 0 0 0 127 0" result="hardAlpha"/>
<feOffset dy="-0.402558"/>
<feGaussianBlur stdDeviation="0.362302"/>
<feComposite in2="hardAlpha" operator="arithmetic" k2="-1" k3="1"/>
<feColorMatrix type="matrix" values="0 0 0 0 0 0 0 0 0 0 0 0 0 0 0 0 0 0 0.25 0"/>
<feBlend mode="normal" in2="effect2_innerShadow_734_3381" result="effect3_innerShadow_734_3381"/>
</filter>
<filter id="filter6_dii_734_3381" x="136.306" y="-13.4454" width="62.3159" height="62.3159" filterUnits="userSpaceOnUse" color-interpolation-filters="sRGB">
<feFlood flood-opacity="0" result="BackgroundImageFix"/>
<feColorMatrix in="SourceAlpha" type="matrix" values="0 0 0 0 0 0 0 0 0 0 0 0 0 0 0 0 0 0 127 0" result="hardAlpha"/>
<feOffset dy="3.22046"/>
<feGaussianBlur stdDeviation="9.94318"/>
<feComposite in2="hardAlpha" operator="out"/>
<feColorMatrix type="matrix" values="0 0 0 0 0.367239 0 0 0 0 0.0947569 0 0 0 0 0.775962 0 0 0 0.6 0"/>
<feBlend mode="normal" in2="BackgroundImageFix" result="effect1_dropShadow_734_3381"/>
<feBlend mode="normal" in="SourceGraphic" in2="effect1_dropShadow_734_3381" result="shape"/>
<feColorMatrix in="SourceAlpha" type="matrix" values="0 0 0 0 0 0 0 0 0 0 0 0 0 0 0 0 0 0 127 0" result="hardAlpha"/>
<feOffset dx="0.483069" dy="0.805115"/>
<feGaussianBlur stdDeviation="0.362302"/>
<feComposite in2="hardAlpha" operator="arithmetic" k2="-1" k3="1"/>
<feColorMatrix type="matrix" values="0 0 0 0 0 0 0 0 0 0 0 0 0 0 0 0 0 0 0.25 0"/>
<feBlend mode="normal" in2="shape" result="effect2_innerShadow_734_3381"/>
<feColorMatrix in="SourceAlpha" type="matrix" values="0 0 0 0 0 0 0 0 0 0 0 0 0 0 0 0 0 0 127 0" result="hardAlpha"/>
<feOffset dy="-0.402558"/>
<feGaussianBlur stdDeviation="0.362302"/>
<feComposite in2="hardAlpha" operator="arithmetic" k2="-1" k3="1"/>
<feColorMatrix type="matrix" values="0 0 0 0 0 0 0 0 0 0 0 0 0 0 0 0 0 0 0.25 0"/>
<feBlend mode="normal" in2="effect2_innerShadow_734_3381" result="effect3_innerShadow_734_3381"/>
</filter>
<filter id="filter7_i_734_3381" x="0" y="32.3657" width="151.362" height="29.6282" filterUnits="userSpaceOnUse" color-interpolation-filters="sRGB">
<feFlood flood-opacity="0" result="BackgroundImageFix"/>
<feBlend mode="normal" in="SourceGraphic" in2="BackgroundImageFix" result="shape"/>
<feColorMatrix in="SourceAlpha" type="matrix" values="0 0 0 0 0 0 0 0 0 0 0 0 0 0 0 0 0 0 127 0" result="hardAlpha"/>
<feOffset dy="-0.805115"/>
<feGaussianBlur stdDeviation="0.322046"/>
<feComposite in2="hardAlpha" operator="arithmetic" k2="-1" k3="1"/>
<feColorMatrix type="matrix" values="0 0 0 0 0 0 0 0 0 0 0 0 0 0 0 0 0 0 0.26 0"/>
<feBlend mode="normal" in2="shape" result="effect1_innerShadow_734_3381"/>
</filter>
<filter id="filter8_dii_734_3381" x="-16.6659" y="19.5643" width="62.3159" height="62.3159" filterUnits="userSpaceOnUse" color-interpolation-filters="sRGB">
<feFlood flood-opacity="0" result="BackgroundImageFix"/>
<feColorMatrix in="SourceAlpha" type="matrix" values="0 0 0 0 0 0 0 0 0 0 0 0 0 0 0 0 0 0 127 0" result="hardAlpha"/>
<feOffset dy="3.22046"/>
<feGaussianBlur stdDeviation="9.94318"/>
<feComposite in2="hardAlpha" operator="out"/>
<feColorMatrix type="matrix" values="0 0 0 0 0.367239 0 0 0 0 0.0947569 0 0 0 0 0.775962 0 0 0 0.6 0"/>
<feBlend mode="normal" in2="BackgroundImageFix" result="effect1_dropShadow_734_3381"/>
<feBlend mode="normal" in="SourceGraphic" in2="effect1_dropShadow_734_3381" result="shape"/>
<feColorMatrix in="SourceAlpha" type="matrix" values="0 0 0 0 0 0 0 0 0 0 0 0 0 0 0 0 0 0 127 0" result="hardAlpha"/>
<feOffset dx="0.483069" dy="0.805115"/>
<feGaussianBlur stdDeviation="0.362302"/>
<feComposite in2="hardAlpha" operator="arithmetic" k2="-1" k3="1"/>
<feColorMatrix type="matrix" values="0 0 0 0 0 0 0 0 0 0 0 0 0 0 0 0 0 0 0.25 0"/>
<feBlend mode="normal" in2="shape" result="effect2_innerShadow_734_3381"/>
<feColorMatrix in="SourceAlpha" type="matrix" values="0 0 0 0 0 0 0 0 0 0 0 0 0 0 0 0 0 0 127 0" result="hardAlpha"/>
<feOffset dy="-0.402558"/>
<feGaussianBlur stdDeviation="0.362302"/>
<feComposite in2="hardAlpha" operator="arithmetic" k2="-1" k3="1"/>
<feColorMatrix type="matrix" values="0 0 0 0 0 0 0 0 0 0 0 0 0 0 0 0 0 0 0.25 0"/>
<feBlend mode="normal" in2="effect2_innerShadow_734_3381" result="effect3_innerShadow_734_3381"/>
</filter>
<filter id="filter9_dii_734_3381" x="13.9285" y="19.5643" width="62.3159" height="62.3159" filterUnits="userSpaceOnUse" color-interpolation-filters="sRGB">
<feFlood flood-opacity="0" result="BackgroundImageFix"/>
<feColorMatrix in="SourceAlpha" type="matrix" values="0 0 0 0 0 0 0 0 0 0 0 0 0 0 0 0 0 0 127 0" result="hardAlpha"/>
<feOffset dy="3.22046"/>
<feGaussianBlur stdDeviation="9.94318"/>
<feComposite in2="hardAlpha" operator="out"/>
<feColorMatrix type="matrix" values="0 0 0 0 0.367239 0 0 0 0 0.0947569 0 0 0 0 0.775962 0 0 0 0.6 0"/>
<feBlend mode="normal" in2="BackgroundImageFix" result="effect1_dropShadow_734_3381"/>
<feBlend mode="normal" in="SourceGraphic" in2="effect1_dropShadow_734_3381" result="shape"/>
<feColorMatrix in="SourceAlpha" type="matrix" values="0 0 0 0 0 0 0 0 0 0 0 0 0 0 0 0 0 0 127 0" result="hardAlpha"/>
<feOffset dx="0.483069" dy="0.805115"/>
<feGaussianBlur stdDeviation="0.362302"/>
<feComposite in2="hardAlpha" operator="arithmetic" k2="-1" k3="1"/>
<feColorMatrix type="matrix" values="0 0 0 0 0 0 0 0 0 0 0 0 0 0 0 0 0 0 0.25 0"/>
<feBlend mode="normal" in2="shape" result="effect2_innerShadow_734_3381"/>
<feColorMatrix in="SourceAlpha" type="matrix" values="0 0 0 0 0 0 0 0 0 0 0 0 0 0 0 0 0 0 127 0" result="hardAlpha"/>
<feOffset dy="-0.402558"/>
<feGaussianBlur stdDeviation="0.362302"/>
<feComposite in2="hardAlpha" operator="arithmetic" k2="-1" k3="1"/>
<feColorMatrix type="matrix" values="0 0 0 0 0 0 0 0 0 0 0 0 0 0 0 0 0 0 0.25 0"/>
<feBlend mode="normal" in2="effect2_innerShadow_734_3381" result="effect3_innerShadow_734_3381"/>
</filter>
<filter id="filter10_dii_734_3381" x="44.5229" y="19.5643" width="62.3159" height="62.3159" filterUnits="userSpaceOnUse" color-interpolation-filters="sRGB">
<feFlood flood-opacity="0" result="BackgroundImageFix"/>
<feColorMatrix in="SourceAlpha" type="matrix" values="0 0 0 0 0 0 0 0 0 0 0 0 0 0 0 0 0 0 127 0" result="hardAlpha"/>
<feOffset dy="3.22046"/>
<feGaussianBlur stdDeviation="9.94318"/>
<feComposite in2="hardAlpha" operator="out"/>
<feColorMatrix type="matrix" values="0 0 0 0 0.367239 0 0 0 0 0.0947569 0 0 0 0 0.775962 0 0 0 0.6 0"/>
<feBlend mode="normal" in2="BackgroundImageFix" result="effect1_dropShadow_734_3381"/>
<feBlend mode="normal" in="SourceGraphic" in2="effect1_dropShadow_734_3381" result="shape"/>
<feColorMatrix in="SourceAlpha" type="matrix" values="0 0 0 0 0 0 0 0 0 0 0 0 0 0 0 0 0 0 127 0" result="hardAlpha"/>
<feOffset dx="0.483069" dy="0.805115"/>
<feGaussianBlur stdDeviation="0.362302"/>
<feComposite in2="hardAlpha" operator="arithmetic" k2="-1" k3="1"/>
<feColorMatrix type="matrix" values="0 0 0 0 0 0 0 0 0 0 0 0 0 0 0 0 0 0 0.25 0"/>
<feBlend mode="normal" in2="shape" result="effect2_innerShadow_734_3381"/>
<feColorMatrix in="SourceAlpha" type="matrix" values="0 0 0 0 0 0 0 0 0 0 0 0 0 0 0 0 0 0 127 0" result="hardAlpha"/>
<feOffset dy="-0.402558"/>
<feGaussianBlur stdDeviation="0.362302"/>
<feComposite in2="hardAlpha" operator="arithmetic" k2="-1" k3="1"/>
<feColorMatrix type="matrix" values="0 0 0 0 0 0 0 0 0 0 0 0 0 0 0 0 0 0 0.25 0"/>
<feBlend mode="normal" in2="effect2_innerShadow_734_3381" result="effect3_innerShadow_734_3381"/>
</filter>
<filter id="filter11_d_734_3381" x="60.904" y="31.1443" width="29.5536" height="32.715" filterUnits="userSpaceOnUse" color-interpolation-filters="sRGB">
<feFlood flood-opacity="0" result="BackgroundImageFix"/>
<feColorMatrix in="SourceAlpha" type="matrix" values="0 0 0 0 0 0 0 0 0 0 0 0 0 0 0 0 0 0 127 0" result="hardAlpha"/>
<feOffset/>
<feGaussianBlur stdDeviation="4.87095"/>
<feComposite in2="hardAlpha" operator="out"/>
<feColorMatrix type="matrix" values="0 0 0 0 1 0 0 0 0 1 0 0 0 0 1 0 0 0 0.07 0"/>
<feBlend mode="normal" in2="BackgroundImageFix" result="effect1_dropShadow_734_3381"/>
<feBlend mode="normal" in="SourceGraphic" in2="effect1_dropShadow_734_3381" result="shape"/>
</filter>
<filter id="filter12_dii_734_3381" x="75.1173" y="19.5643" width="62.3159" height="62.3159" filterUnits="userSpaceOnUse" color-interpolation-filters="sRGB">
<feFlood flood-opacity="0" result="BackgroundImageFix"/>
<feColorMatrix in="SourceAlpha" type="matrix" values="0 0 0 0 0 0 0 0 0 0 0 0 0 0 0 0 0 0 127 0" result="hardAlpha"/>
<feOffset dy="3.22046"/>
<feGaussianBlur stdDeviation="9.94318"/>
<feComposite in2="hardAlpha" operator="out"/>
<feColorMatrix type="matrix" values="0 0 0 0 0.367239 0 0 0 0 0.0947569 0 0 0 0 0.775962 0 0 0 0.6 0"/>
<feBlend mode="normal" in2="BackgroundImageFix" result="effect1_dropShadow_734_3381"/>
<feBlend mode="normal" in="SourceGraphic" in2="effect1_dropShadow_734_3381" result="shape"/>
<feColorMatrix in="SourceAlpha" type="matrix" values="0 0 0 0 0 0 0 0 0 0 0 0 0 0 0 0 0 0 127 0" result="hardAlpha"/>
<feOffset dx="0.483069" dy="0.805115"/>
<feGaussianBlur stdDeviation="0.362302"/>
<feComposite in2="hardAlpha" operator="arithmetic" k2="-1" k3="1"/>
<feColorMatrix type="matrix" values="0 0 0 0 0 0 0 0 0 0 0 0 0 0 0 0 0 0 0.25 0"/>
<feBlend mode="normal" in2="shape" result="effect2_innerShadow_734_3381"/>
<feColorMatrix in="SourceAlpha" type="matrix" values="0 0 0 0 0 0 0 0 0 0 0 0 0 0 0 0 0 0 127 0" result="hardAlpha"/>
<feOffset dy="-0.402558"/>
<feGaussianBlur stdDeviation="0.362302"/>
<feComposite in2="hardAlpha" operator="arithmetic" k2="-1" k3="1"/>
<feColorMatrix type="matrix" values="0 0 0 0 0 0 0 0 0 0 0 0 0 0 0 0 0 0 0.25 0"/>
<feBlend mode="normal" in2="effect2_innerShadow_734_3381" result="effect3_innerShadow_734_3381"/>
</filter>
<filter id="filter13_d_734_3381" x="96.214" y="37.4402" width="20.1233" height="20.1243" filterUnits="userSpaceOnUse" color-interpolation-filters="sRGB">
<feFlood flood-opacity="0" result="BackgroundImageFix"/>
<feColorMatrix in="SourceAlpha" type="matrix" values="0 0 0 0 0 0 0 0 0 0 0 0 0 0 0 0 0 0 127 0" result="hardAlpha"/>
<feOffset/>
<feGaussianBlur stdDeviation="1.61023"/>
<feComposite in2="hardAlpha" operator="out"/>
<feColorMatrix type="matrix" values="0 0 0 0 1 0 0 0 0 1 0 0 0 0 1 0 0 0 0.17 0"/>
<feBlend mode="normal" in2="BackgroundImageFix" result="effect1_dropShadow_734_3381"/>
<feBlend mode="normal" in="SourceGraphic" in2="effect1_dropShadow_734_3381" result="shape"/>
</filter>
<filter id="filter14_dii_734_3381" x="105.712" y="19.5643" width="62.3159" height="62.3159" filterUnits="userSpaceOnUse" color-interpolation-filters="sRGB">
<feFlood flood-opacity="0" result="BackgroundImageFix"/>
<feColorMatrix in="SourceAlpha" type="matrix" values="0 0 0 0 0 0 0 0 0 0 0 0 0 0 0 0 0 0 127 0" result="hardAlpha"/>
<feOffset dy="3.22046"/>
<feGaussianBlur stdDeviation="9.94318"/>
<feComposite in2="hardAlpha" operator="out"/>
<feColorMatrix type="matrix" values="0 0 0 0 0.367239 0 0 0 0 0.0947569 0 0 0 0 0.775962 0 0 0 0.6 0"/>
<feBlend mode="normal" in2="BackgroundImageFix" result="effect1_dropShadow_734_3381"/>
<feBlend mode="normal" in="SourceGraphic" in2="effect1_dropShadow_734_3381" result="shape"/>
<feColorMatrix in="SourceAlpha" type="matrix" values="0 0 0 0 0 0 0 0 0 0 0 0 0 0 0 0 0 0 127 0" result="hardAlpha"/>
<feOffset dx="0.483069" dy="0.805115"/>
<feGaussianBlur stdDeviation="0.362302"/>
<feComposite in2="hardAlpha" operator="arithmetic" k2="-1" k3="1"/>
<feColorMatrix type="matrix" values="0 0 0 0 0 0 0 0 0 0 0 0 0 0 0 0 0 0 0.25 0"/>
<feBlend mode="normal" in2="shape" result="effect2_innerShadow_734_3381"/>
<feColorMatrix in="SourceAlpha" type="matrix" values="0 0 0 0 0 0 0 0 0 0 0 0 0 0 0 0 0 0 127 0" result="hardAlpha"/>
<feOffset dy="-0.402558"/>
<feGaussianBlur stdDeviation="0.362302"/>
<feComposite in2="hardAlpha" operator="arithmetic" k2="-1" k3="1"/>
<feColorMatrix type="matrix" values="0 0 0 0 0 0 0 0 0 0 0 0 0 0 0 0 0 0 0.25 0"/>
<feBlend mode="normal" in2="effect2_innerShadow_734_3381" result="effect3_innerShadow_734_3381"/>
</filter>
<filter id="filter15_i_734_3381" x="0" y="65.3754" width="176.706" height="29.6282" filterUnits="userSpaceOnUse" color-interpolation-filters="sRGB">
<feFlood flood-opacity="0" result="BackgroundImageFix"/>
<feBlend mode="normal" in="SourceGraphic" in2="BackgroundImageFix" result="shape"/>
<feColorMatrix in="SourceAlpha" type="matrix" values="0 0 0 0 0 0 0 0 0 0 0 0 0 0 0 0 0 0 127 0" result="hardAlpha"/>
<feOffset dy="-0.805115"/>
<feGaussianBlur stdDeviation="0.322046"/>
<feComposite in2="hardAlpha" operator="arithmetic" k2="-1" k3="1"/>
<feColorMatrix type="matrix" values="0 0 0 0 0 0 0 0 0 0 0 0 0 0 0 0 0 0 0.26 0"/>
<feBlend mode="normal" in2="shape" result="effect1_innerShadow_734_3381"/>
</filter>
<filter id="filter16_dii_734_3381" x="-16.6659" y="52.5741" width="62.3159" height="62.3159" filterUnits="userSpaceOnUse" color-interpolation-filters="sRGB">
<feFlood flood-opacity="0" result="BackgroundImageFix"/>
<feColorMatrix in="SourceAlpha" type="matrix" values="0 0 0 0 0 0 0 0 0 0 0 0 0 0 0 0 0 0 127 0" result="hardAlpha"/>
<feOffset dy="3.22046"/>
<feGaussianBlur stdDeviation="9.94318"/>
<feComposite in2="hardAlpha" operator="out"/>
<feColorMatrix type="matrix" values="0 0 0 0 0.367239 0 0 0 0 0.0947569 0 0 0 0 0.775962 0 0 0 0.6 0"/>
<feBlend mode="normal" in2="BackgroundImageFix" result="effect1_dropShadow_734_3381"/>
<feBlend mode="normal" in="SourceGraphic" in2="effect1_dropShadow_734_3381" result="shape"/>
<feColorMatrix in="SourceAlpha" type="matrix" values="0 0 0 0 0 0 0 0 0 0 0 0 0 0 0 0 0 0 127 0" result="hardAlpha"/>
<feOffset dx="0.483069" dy="0.805115"/>
<feGaussianBlur stdDeviation="0.362302"/>
<feComposite in2="hardAlpha" operator="arithmetic" k2="-1" k3="1"/>
<feColorMatrix type="matrix" values="0 0 0 0 0 0 0 0 0 0 0 0 0 0 0 0 0 0 0.25 0"/>
<feBlend mode="normal" in2="shape" result="effect2_innerShadow_734_3381"/>
<feColorMatrix in="SourceAlpha" type="matrix" values="0 0 0 0 0 0 0 0 0 0 0 0 0 0 0 0 0 0 127 0" result="hardAlpha"/>
<feOffset dy="-0.402558"/>
<feGaussianBlur stdDeviation="0.362302"/>
<feComposite in2="hardAlpha" operator="arithmetic" k2="-1" k3="1"/>
<feColorMatrix type="matrix" values="0 0 0 0 0 0 0 0 0 0 0 0 0 0 0 0 0 0 0.25 0"/>
<feBlend mode="normal" in2="effect2_innerShadow_734_3381" result="effect3_innerShadow_734_3381"/>
</filter>
<filter id="filter17_dii_734_3381" x="69.8675" y="52.5741" width="62.3159" height="62.3159" filterUnits="userSpaceOnUse" color-interpolation-filters="sRGB">
<feFlood flood-opacity="0" result="BackgroundImageFix"/>
<feColorMatrix in="SourceAlpha" type="matrix" values="0 0 0 0 0 0 0 0 0 0 0 0 0 0 0 0 0 0 127 0" result="hardAlpha"/>
<feOffset dy="3.22046"/>
<feGaussianBlur stdDeviation="9.94318"/>
<feComposite in2="hardAlpha" operator="out"/>
<feColorMatrix type="matrix" values="0 0 0 0 0.367239 0 0 0 0 0.0947569 0 0 0 0 0.775962 0 0 0 0.6 0"/>
<feBlend mode="normal" in2="BackgroundImageFix" result="effect1_dropShadow_734_3381"/>
<feBlend mode="normal" in="SourceGraphic" in2="effect1_dropShadow_734_3381" result="shape"/>
<feColorMatrix in="SourceAlpha" type="matrix" values="0 0 0 0 0 0 0 0 0 0 0 0 0 0 0 0 0 0 127 0" result="hardAlpha"/>
<feOffset dx="0.483069" dy="0.805115"/>
<feGaussianBlur stdDeviation="0.362302"/>
<feComposite in2="hardAlpha" operator="arithmetic" k2="-1" k3="1"/>
<feColorMatrix type="matrix" values="0 0 0 0 0 0 0 0 0 0 0 0 0 0 0 0 0 0 0.25 0"/>
<feBlend mode="normal" in2="shape" result="effect2_innerShadow_734_3381"/>
<feColorMatrix in="SourceAlpha" type="matrix" values="0 0 0 0 0 0 0 0 0 0 0 0 0 0 0 0 0 0 127 0" result="hardAlpha"/>
<feOffset dy="-0.402558"/>
<feGaussianBlur stdDeviation="0.362302"/>
<feComposite in2="hardAlpha" operator="arithmetic" k2="-1" k3="1"/>
<feColorMatrix type="matrix" values="0 0 0 0 0 0 0 0 0 0 0 0 0 0 0 0 0 0 0.25 0"/>
<feBlend mode="normal" in2="effect2_innerShadow_734_3381" result="effect3_innerShadow_734_3381"/>
</filter>
<filter id="filter18_dii_734_3381" x="100.462" y="52.5741" width="62.3159" height="62.3159" filterUnits="userSpaceOnUse" color-interpolation-filters="sRGB">
<feFlood flood-opacity="0" result="BackgroundImageFix"/>
<feColorMatrix in="SourceAlpha" type="matrix" values="0 0 0 0 0 0 0 0 0 0 0 0 0 0 0 0 0 0 127 0" result="hardAlpha"/>
<feOffset dy="3.22046"/>
<feGaussianBlur stdDeviation="9.94318"/>
<feComposite in2="hardAlpha" operator="out"/>
<feColorMatrix type="matrix" values="0 0 0 0 0.367239 0 0 0 0 0.0947569 0 0 0 0 0.775962 0 0 0 0.6 0"/>
<feBlend mode="normal" in2="BackgroundImageFix" result="effect1_dropShadow_734_3381"/>
<feBlend mode="normal" in="SourceGraphic" in2="effect1_dropShadow_734_3381" result="shape"/>
<feColorMatrix in="SourceAlpha" type="matrix" values="0 0 0 0 0 0 0 0 0 0 0 0 0 0 0 0 0 0 127 0" result="hardAlpha"/>
<feOffset dx="0.483069" dy="0.805115"/>
<feGaussianBlur stdDeviation="0.362302"/>
<feComposite in2="hardAlpha" operator="arithmetic" k2="-1" k3="1"/>
<feColorMatrix type="matrix" values="0 0 0 0 0 0 0 0 0 0 0 0 0 0 0 0 0 0 0.25 0"/>
<feBlend mode="normal" in2="shape" result="effect2_innerShadow_734_3381"/>
<feColorMatrix in="SourceAlpha" type="matrix" values="0 0 0 0 0 0 0 0 0 0 0 0 0 0 0 0 0 0 127 0" result="hardAlpha"/>
<feOffset dy="-0.402558"/>
<feGaussianBlur stdDeviation="0.362302"/>
<feComposite in2="hardAlpha" operator="arithmetic" k2="-1" k3="1"/>
<feColorMatrix type="matrix" values="0 0 0 0 0 0 0 0 0 0 0 0 0 0 0 0 0 0 0.25 0"/>
<feBlend mode="normal" in2="effect2_innerShadow_734_3381" result="effect3_innerShadow_734_3381"/>
</filter>
<filter id="filter19_dii_734_3381" x="131.056" y="52.5741" width="62.3159" height="62.3159" filterUnits="userSpaceOnUse" color-interpolation-filters="sRGB">
<feFlood flood-opacity="0" result="BackgroundImageFix"/>
<feColorMatrix in="SourceAlpha" type="matrix" values="0 0 0 0 0 0 0 0 0 0 0 0 0 0 0 0 0 0 127 0" result="hardAlpha"/>
<feOffset dy="3.22046"/>
<feGaussianBlur stdDeviation="9.94318"/>
<feComposite in2="hardAlpha" operator="out"/>
<feColorMatrix type="matrix" values="0 0 0 0 0.367239 0 0 0 0 0.0947569 0 0 0 0 0.775962 0 0 0 0.6 0"/>
<feBlend mode="normal" in2="BackgroundImageFix" result="effect1_dropShadow_734_3381"/>
<feBlend mode="normal" in="SourceGraphic" in2="effect1_dropShadow_734_3381" result="shape"/>
<feColorMatrix in="SourceAlpha" type="matrix" values="0 0 0 0 0 0 0 0 0 0 0 0 0 0 0 0 0 0 127 0" result="hardAlpha"/>
<feOffset dx="0.483069" dy="0.805115"/>
<feGaussianBlur stdDeviation="0.362302"/>
<feComposite in2="hardAlpha" operator="arithmetic" k2="-1" k3="1"/>
<feColorMatrix type="matrix" values="0 0 0 0 0 0 0 0 0 0 0 0 0 0 0 0 0 0 0.25 0"/>
<feBlend mode="normal" in2="shape" result="effect2_innerShadow_734_3381"/>
<feColorMatrix in="SourceAlpha" type="matrix" values="0 0 0 0 0 0 0 0 0 0 0 0 0 0 0 0 0 0 127 0" result="hardAlpha"/>
<feOffset dy="-0.402558"/>
<feGaussianBlur stdDeviation="0.362302"/>
<feComposite in2="hardAlpha" operator="arithmetic" k2="-1" k3="1"/>
<feColorMatrix type="matrix" values="0 0 0 0 0 0 0 0 0 0 0 0 0 0 0 0 0 0 0.25 0"/>
<feBlend mode="normal" in2="effect2_innerShadow_734_3381" result="effect3_innerShadow_734_3381"/>
</filter>
<filter id="filter20_i_734_3381" x="6.10352e-05" y="98.3852" width="184.371" height="29.6282" filterUnits="userSpaceOnUse" color-interpolation-filters="sRGB">
<feFlood flood-opacity="0" result="BackgroundImageFix"/>
<feBlend mode="normal" in="SourceGraphic" in2="BackgroundImageFix" result="shape"/>
<feColorMatrix in="SourceAlpha" type="matrix" values="0 0 0 0 0 0 0 0 0 0 0 0 0 0 0 0 0 0 127 0" result="hardAlpha"/>
<feOffset dy="-0.805115"/>
<feGaussianBlur stdDeviation="0.322046"/>
<feComposite in2="hardAlpha" operator="arithmetic" k2="-1" k3="1"/>
<feColorMatrix type="matrix" values="0 0 0 0 0 0 0 0 0 0 0 0 0 0 0 0 0 0 0.26 0"/>
<feBlend mode="normal" in2="shape" result="effect1_innerShadow_734_3381"/>
</filter>
<filter id="filter21_dii_734_3381" x="-16.6658" y="85.5839" width="62.3159" height="62.3159" filterUnits="userSpaceOnUse" color-interpolation-filters="sRGB">
<feFlood flood-opacity="0" result="BackgroundImageFix"/>
<feColorMatrix in="SourceAlpha" type="matrix" values="0 0 0 0 0 0 0 0 0 0 0 0 0 0 0 0 0 0 127 0" result="hardAlpha"/>
<feOffset dy="3.22046"/>
<feGaussianBlur stdDeviation="9.94318"/>
<feComposite in2="hardAlpha" operator="out"/>
<feColorMatrix type="matrix" values="0 0 0 0 0.367239 0 0 0 0 0.0947569 0 0 0 0 0.775962 0 0 0 0.6 0"/>
<feBlend mode="normal" in2="BackgroundImageFix" result="effect1_dropShadow_734_3381"/>
<feBlend mode="normal" in="SourceGraphic" in2="effect1_dropShadow_734_3381" result="shape"/>
<feColorMatrix in="SourceAlpha" type="matrix" values="0 0 0 0 0 0 0 0 0 0 0 0 0 0 0 0 0 0 127 0" result="hardAlpha"/>
<feOffset dx="0.483069" dy="0.805115"/>
<feGaussianBlur stdDeviation="0.362302"/>
<feComposite in2="hardAlpha" operator="arithmetic" k2="-1" k3="1"/>
<feColorMatrix type="matrix" values="0 0 0 0 0 0 0 0 0 0 0 0 0 0 0 0 0 0 0.25 0"/>
<feBlend mode="normal" in2="shape" result="effect2_innerShadow_734_3381"/>
<feColorMatrix in="SourceAlpha" type="matrix" values="0 0 0 0 0 0 0 0 0 0 0 0 0 0 0 0 0 0 127 0" result="hardAlpha"/>
<feOffset dy="-0.402558"/>
<feGaussianBlur stdDeviation="0.362302"/>
<feComposite in2="hardAlpha" operator="arithmetic" k2="-1" k3="1"/>
<feColorMatrix type="matrix" values="0 0 0 0 0 0 0 0 0 0 0 0 0 0 0 0 0 0 0.25 0"/>
<feBlend mode="normal" in2="effect2_innerShadow_734_3381" result="effect3_innerShadow_734_3381"/>
</filter>
<filter id="filter22_dii_734_3381" x="13.9285" y="85.5839" width="62.3159" height="62.3159" filterUnits="userSpaceOnUse" color-interpolation-filters="sRGB">
<feFlood flood-opacity="0" result="BackgroundImageFix"/>
<feColorMatrix in="SourceAlpha" type="matrix" values="0 0 0 0 0 0 0 0 0 0 0 0 0 0 0 0 0 0 127 0" result="hardAlpha"/>
<feOffset dy="3.22046"/>
<feGaussianBlur stdDeviation="9.94318"/>
<feComposite in2="hardAlpha" operator="out"/>
<feColorMatrix type="matrix" values="0 0 0 0 0.367239 0 0 0 0 0.0947569 0 0 0 0 0.775962 0 0 0 0.6 0"/>
<feBlend mode="normal" in2="BackgroundImageFix" result="effect1_dropShadow_734_3381"/>
<feBlend mode="normal" in="SourceGraphic" in2="effect1_dropShadow_734_3381" result="shape"/>
<feColorMatrix in="SourceAlpha" type="matrix" values="0 0 0 0 0 0 0 0 0 0 0 0 0 0 0 0 0 0 127 0" result="hardAlpha"/>
<feOffset dx="0.483069" dy="0.805115"/>
<feGaussianBlur stdDeviation="0.362302"/>
<feComposite in2="hardAlpha" operator="arithmetic" k2="-1" k3="1"/>
<feColorMatrix type="matrix" values="0 0 0 0 0 0 0 0 0 0 0 0 0 0 0 0 0 0 0.25 0"/>
<feBlend mode="normal" in2="shape" result="effect2_innerShadow_734_3381"/>
<feColorMatrix in="SourceAlpha" type="matrix" values="0 0 0 0 0 0 0 0 0 0 0 0 0 0 0 0 0 0 127 0" result="hardAlpha"/>
<feOffset dy="-0.402558"/>
<feGaussianBlur stdDeviation="0.362302"/>
<feComposite in2="hardAlpha" operator="arithmetic" k2="-1" k3="1"/>
<feColorMatrix type="matrix" values="0 0 0 0 0 0 0 0 0 0 0 0 0 0 0 0 0 0 0.25 0"/>
<feBlend mode="normal" in2="effect2_innerShadow_734_3381" result="effect3_innerShadow_734_3381"/>
</filter>
<filter id="filter23_dii_734_3381" x="44.5229" y="85.5839" width="62.3159" height="62.3159" filterUnits="userSpaceOnUse" color-interpolation-filters="sRGB">
<feFlood flood-opacity="0" result="BackgroundImageFix"/>
<feColorMatrix in="SourceAlpha" type="matrix" values="0 0 0 0 0 0 0 0 0 0 0 0 0 0 0 0 0 0 127 0" result="hardAlpha"/>
<feOffset dy="3.22046"/>
<feGaussianBlur stdDeviation="9.94318"/>
<feComposite in2="hardAlpha" operator="out"/>
<feColorMatrix type="matrix" values="0 0 0 0 0.367239 0 0 0 0 0.0947569 0 0 0 0 0.775962 0 0 0 0.6 0"/>
<feBlend mode="normal" in2="BackgroundImageFix" result="effect1_dropShadow_734_3381"/>
<feBlend mode="normal" in="SourceGraphic" in2="effect1_dropShadow_734_3381" result="shape"/>
<feColorMatrix in="SourceAlpha" type="matrix" values="0 0 0 0 0 0 0 0 0 0 0 0 0 0 0 0 0 0 127 0" result="hardAlpha"/>
<feOffset dx="0.483069" dy="0.805115"/>
<feGaussianBlur stdDeviation="0.362302"/>
<feComposite in2="hardAlpha" operator="arithmetic" k2="-1" k3="1"/>
<feColorMatrix type="matrix" values="0 0 0 0 0 0 0 0 0 0 0 0 0 0 0 0 0 0 0.25 0"/>
<feBlend mode="normal" in2="shape" result="effect2_innerShadow_734_3381"/>
<feColorMatrix in="SourceAlpha" type="matrix" values="0 0 0 0 0 0 0 0 0 0 0 0 0 0 0 0 0 0 127 0" result="hardAlpha"/>
<feOffset dy="-0.402558"/>
<feGaussianBlur stdDeviation="0.362302"/>
<feComposite in2="hardAlpha" operator="arithmetic" k2="-1" k3="1"/>
<feColorMatrix type="matrix" values="0 0 0 0 0 0 0 0 0 0 0 0 0 0 0 0 0 0 0.25 0"/>
<feBlend mode="normal" in2="effect2_innerShadow_734_3381" result="effect3_innerShadow_734_3381"/>
</filter>
<filter id="filter24_i_734_3381" x="95.0037" y="102.25" width="22.5432" height="23.2003" filterUnits="userSpaceOnUse" color-interpolation-filters="sRGB">
<feFlood flood-opacity="0" result="BackgroundImageFix"/>
<feBlend mode="normal" in="SourceGraphic" in2="BackgroundImageFix" result="shape"/>
<feColorMatrix in="SourceAlpha" type="matrix" values="0 0 0 0 0 0 0 0 0 0 0 0 0 0 0 0 0 0 127 0" result="hardAlpha"/>
<feOffset dy="0.657055"/>
<feGaussianBlur stdDeviation="1.31411"/>
<feComposite in2="hardAlpha" operator="arithmetic" k2="-1" k3="1"/>
<feColorMatrix type="matrix" values="0 0 0 0 0 0 0 0 0 0 0 0 0 0 0 0 0 0 0.25 0"/>
<feBlend mode="normal" in2="shape" result="effect1_innerShadow_734_3381"/>
</filter>
<filter id="filter25_dii_734_3381" x="105.712" y="85.5839" width="62.3159" height="62.3159" filterUnits="userSpaceOnUse" color-interpolation-filters="sRGB">
<feFlood flood-opacity="0" result="BackgroundImageFix"/>
<feColorMatrix in="SourceAlpha" type="matrix" values="0 0 0 0 0 0 0 0 0 0 0 0 0 0 0 0 0 0 127 0" result="hardAlpha"/>
<feOffset dy="3.22046"/>
<feGaussianBlur stdDeviation="9.94318"/>
<feComposite in2="hardAlpha" operator="out"/>
<feColorMatrix type="matrix" values="0 0 0 0 0.367239 0 0 0 0 0.0947569 0 0 0 0 0.775962 0 0 0 0.6 0"/>
<feBlend mode="normal" in2="BackgroundImageFix" result="effect1_dropShadow_734_3381"/>
<feBlend mode="normal" in="SourceGraphic" in2="effect1_dropShadow_734_3381" result="shape"/>
<feColorMatrix in="SourceAlpha" type="matrix" values="0 0 0 0 0 0 0 0 0 0 0 0 0 0 0 0 0 0 127 0" result="hardAlpha"/>
<feOffset dx="0.483069" dy="0.805115"/>
<feGaussianBlur stdDeviation="0.362302"/>
<feComposite in2="hardAlpha" operator="arithmetic" k2="-1" k3="1"/>
<feColorMatrix type="matrix" values="0 0 0 0 0 0 0 0 0 0 0 0 0 0 0 0 0 0 0.25 0"/>
<feBlend mode="normal" in2="shape" result="effect2_innerShadow_734_3381"/>
<feColorMatrix in="SourceAlpha" type="matrix" values="0 0 0 0 0 0 0 0 0 0 0 0 0 0 0 0 0 0 127 0" result="hardAlpha"/>
<feOffset dy="-0.402558"/>
<feGaussianBlur stdDeviation="0.362302"/>
<feComposite in2="hardAlpha" operator="arithmetic" k2="-1" k3="1"/>
<feColorMatrix type="matrix" values="0 0 0 0 0 0 0 0 0 0 0 0 0 0 0 0 0 0 0.25 0"/>
<feBlend mode="normal" in2="effect2_innerShadow_734_3381" result="effect3_innerShadow_734_3381"/>
</filter>
<filter id="filter26_dii_734_3381" x="136.306" y="85.5839" width="62.3159" height="62.3159" filterUnits="userSpaceOnUse" color-interpolation-filters="sRGB">
<feFlood flood-opacity="0" result="BackgroundImageFix"/>
<feColorMatrix in="SourceAlpha" type="matrix" values="0 0 0 0 0 0 0 0 0 0 0 0 0 0 0 0 0 0 127 0" result="hardAlpha"/>
<feOffset dy="3.22046"/>
<feGaussianBlur stdDeviation="9.94318"/>
<feComposite in2="hardAlpha" operator="out"/>
<feColorMatrix type="matrix" values="0 0 0 0 0.367239 0 0 0 0 0.0947569 0 0 0 0 0.775962 0 0 0 0.6 0"/>
<feBlend mode="normal" in2="BackgroundImageFix" result="effect1_dropShadow_734_3381"/>
<feBlend mode="normal" in="SourceGraphic" in2="effect1_dropShadow_734_3381" result="shape"/>
<feColorMatrix in="SourceAlpha" type="matrix" values="0 0 0 0 0 0 0 0 0 0 0 0 0 0 0 0 0 0 127 0" result="hardAlpha"/>
<feOffset dx="0.483069" dy="0.805115"/>
<feGaussianBlur stdDeviation="0.362302"/>
<feComposite in2="hardAlpha" operator="arithmetic" k2="-1" k3="1"/>
<feColorMatrix type="matrix" values="0 0 0 0 0 0 0 0 0 0 0 0 0 0 0 0 0 0 0.25 0"/>
<feBlend mode="normal" in2="shape" result="effect2_innerShadow_734_3381"/>
<feColorMatrix in="SourceAlpha" type="matrix" values="0 0 0 0 0 0 0 0 0 0 0 0 0 0 0 0 0 0 127 0" result="hardAlpha"/>
<feOffset dy="-0.402558"/>
<feGaussianBlur stdDeviation="0.362302"/>
<feComposite in2="hardAlpha" operator="arithmetic" k2="-1" k3="1"/>
<feColorMatrix type="matrix" values="0 0 0 0 0 0 0 0 0 0 0 0 0 0 0 0 0 0 0.25 0"/>
<feBlend mode="normal" in2="effect2_innerShadow_734_3381" result="effect3_innerShadow_734_3381"/>
</filter>
<clipPath id="clip0_734_3381">
<rect x="6.10352e-05" width="184.371" height="28.9842" rx="4.83069" fill="white"/>
</clipPath>
<clipPath id="clip1_734_3381">
<rect width="18.2368" height="18.2368" fill="white" transform="translate(5.22052 5.22046)"/>
</clipPath>
<clipPath id="clip2_734_3381">
<rect width="17.0772" height="17.0772" fill="white" transform="translate(67.4092 6.22046)"/>
</clipPath>
<clipPath id="clip3_734_3381">
<rect width="16.9356" height="16.9356" fill="white" transform="translate(159.192 6.22046)"/>
</clipPath>
<clipPath id="clip4_734_3381">
<rect y="33.0098" width="151.362" height="28.9842" rx="4.83069" fill="white"/>
</clipPath>
<clipPath id="clip5_734_3381">
<rect width="19.8399" height="19.8399" fill="white" transform="translate(4.22046 37.2302)"/>
</clipPath>
<clipPath id="clip6_734_3381">
<path d="M64.4092 39.4507C64.4092 37.6721 65.8511 36.2302 67.6297 36.2302H83.732C85.5106 36.2302 86.9525 37.6721 86.9525 39.4507V55.553C86.9525 57.3316 85.5106 58.7735 83.732 58.7735H67.6297C65.8511 58.7735 64.4092 57.3316 64.4092 55.553V39.4507Z" fill="white"/>
</clipPath>
<clipPath id="clip7_734_3381">
<rect width="15.588" height="15.588" fill="white" transform="translate(98.4813 39.708)"/>
</clipPath>
<clipPath id="clip8_734_3381">
<rect width="18.1375" height="18.1375" fill="white" transform="translate(127.598 39.2302)"/>
</clipPath>
<clipPath id="clip9_734_3381">
<rect y="66.0195" width="176.706" height="28.9842" rx="4.83069" fill="white"/>
</clipPath>
<clipPath id="clip10_734_3381">
<rect width="18.7133" height="18.7133" fill="white" transform="translate(5.13544 71.155)"/>
</clipPath>
<clipPath id="clip11_734_3381">
<rect width="19.335" height="19.335" fill="white" transform="translate(91.358 70.844)"/>
</clipPath>
<clipPath id="clip12_734_3381">
<rect x="6.10352e-05" y="99.0293" width="184.371" height="28.9842" rx="4.83069" fill="white"/>
</clipPath>
<clipPath id="clip13_734_3381">
<rect width="19.335" height="19.335" fill="white" transform="translate(157.797 103.854)"/>
</clipPath>
</defs>
</svg>
