<svg width="43" height="43" viewBox="0 0 43 43" fill="none" xmlns="http://www.w3.org/2000/svg">
<path d="M33.7755 23.9809C32.5382 21.3056 29.4783 20.2489 29.4783 20.2489C29.4783 20.2489 33.3341 18.2692 32.4881 14.3833C31.943 11.8484 29.6455 9.30019 25.3684 9.23665V5.55811L21.5594 5.55811V9.23665H18.7871V5.55811L14.9815 5.55811V9.23665H10.2028L10.2028 12.7079H12.4099C12.5285 12.7079 12.6459 12.7312 12.7554 12.7766C12.865 12.822 12.9645 12.8885 13.0483 12.9723C13.1322 13.0562 13.1987 13.1557 13.2441 13.2652C13.2894 13.3748 13.3128 13.4922 13.3128 13.6108L13.3128 28.5925C13.3128 28.8586 13.2071 29.1137 13.019 29.3019C12.8308 29.49 12.5756 29.5957 12.3096 29.5957H10.9953L10.2028 33.3311H14.9815L14.9815 37.2605H18.7871V33.3311H21.5594V37.2605H25.3651V33.3311H26.1008C33.4679 33.3311 35.4476 27.6628 33.7755 23.9809ZM22.663 12.7079C24.5992 12.7079 26.395 13.9552 26.4452 15.8681C26.4954 17.7809 24.9103 19.4329 22.8068 19.4597C20.8705 19.4831 18.7938 19.4597 18.7938 19.4597V12.7079C18.7938 12.7079 20.6331 12.7079 22.663 12.7079ZM23.8 29.5857C21.7935 29.6225 18.7838 29.5857 18.7838 29.5857V22.563C18.7838 22.563 21.5628 22.6031 23.6361 22.563C26.1309 22.5229 27.9668 23.6866 27.9835 25.8837C28.0002 28.0808 26.5054 29.5422 23.8 29.5924V29.5857Z" fill="white"/>
</svg>
