<svg width="31" height="27" viewBox="0 0 31 27" fill="none" xmlns="http://www.w3.org/2000/svg">
<g clip-path="url(#clip0_734_4143)">
<path d="M6.10352e-05 14.5759C0.0940057 14.6632 0.0952104 14.5524 0.100028 14.5156C0.295144 13.1805 1.02321 12.0773 1.68023 10.9445C2.69675 9.18488 3.71529 7.42643 4.73584 5.66918C5.69937 4.00588 7.45481 3.54399 9.1139 4.5009C9.53545 4.74178 9.92989 5.03445 10.3942 5.19705C10.9717 5.5379 11.5432 5.89019 12.1274 6.22081C13.121 6.77845 13.6329 7.63359 13.7106 8.7531C13.7618 9.47033 13.5052 10.0948 13.1391 10.7055C12.4285 11.8876 11.7672 13.1011 11.0747 14.297C10.6531 15.0245 10.2129 15.7423 9.78958 16.465C9.42825 17.0871 9.12715 17.7513 8.71102 18.3318C8.10038 19.1882 7.85528 20.1427 7.84023 21.1526C7.82216 22.3679 8.22624 23.4693 8.94468 24.4551C9.07656 24.6358 9.26987 24.7899 9.27951 25.0429C8.43039 24.5545 7.56742 24.089 6.73698 23.5711C5.79331 22.9833 4.79425 22.4937 3.86083 21.8849C3.54226 21.6771 3.16949 21.5236 2.85935 21.2977C2.16351 20.7959 1.56823 20.1677 1.10451 19.4459C0.631365 18.703 0.299597 17.879 0.125923 17.0154C0.108459 16.9293 0.125923 16.8311 0.0398071 16.7697C0.0398071 16.7697 0.0259552 16.7781 0.0199331 16.7842C0.0128545 16.7912 0.00621824 16.7986 6.10352e-05 16.8064L6.10352e-05 14.5759Z" fill="#DFD0F4"/>
<path d="M27.3897 4.71423C28.0413 5.01955 28.6459 5.39653 29.1566 5.90841C29.9266 6.67271 30.4598 7.64291 30.6922 8.70266C30.7115 8.78818 30.7001 8.88333 30.7795 8.94957C30.7795 8.94957 30.7934 8.94355 30.8 8.93813C30.8075 8.93176 30.8145 8.92493 30.8211 8.91765V10.9049C30.7266 10.8236 30.7253 10.9326 30.7193 10.9652C30.5302 12.0612 29.9112 12.9603 29.3746 13.8949C28.1985 15.9424 27.0085 17.9833 25.833 20.032C24.796 21.8387 22.6931 22.4077 20.8877 21.3569C20.4119 21.0803 19.9354 20.8049 19.458 20.5307C20.0253 19.5286 20.5878 18.5241 21.1611 17.5256C22.0933 15.9033 23.0381 14.2882 23.9649 12.6628C24.2055 12.2606 24.3444 11.8059 24.3696 11.3379C24.422 9.90648 23.8632 8.78757 22.6419 8.02578C22.192 7.74455 21.7211 7.49644 21.2604 7.23327C21.2644 7.21276 21.27 7.19262 21.2773 7.17305C22.2221 5.18094 24.3443 4.15598 26.5165 4.49924C26.7682 4.53899 27.0109 4.63835 27.2711 4.64076L27.265 4.63775C27.2843 4.70399 27.3433 4.69857 27.3897 4.71423Z" fill="#B8ADC9"/>
<path d="M27.2742 4.64309C27.0141 4.64309 26.7714 4.54132 26.5197 4.50157C24.3451 4.15831 22.2229 5.18327 21.2804 7.17538C21.2732 7.19495 21.2675 7.2151 21.2636 7.2356C21.1696 7.288 21.1341 7.38615 21.0829 7.47167C20.8131 7.94019 20.5494 8.41292 20.2784 8.88084C19.2542 10.6505 18.2292 12.4186 17.2035 14.1851C16.4037 15.563 15.6251 16.9553 14.7946 18.3139C13.8841 19.8055 11.8848 20.3361 10.3238 19.5363C9.85171 19.2955 9.39644 19.0184 8.93876 18.7535C8.61598 18.5686 8.58647 18.5656 8.4317 18.9137C7.5886 20.8016 7.76927 22.5968 8.92792 24.304C9.223 24.74 9.64274 25.0556 9.98721 25.4434L9.28383 25.0472C9.27479 24.7942 9.08148 24.6401 8.9496 24.4594C8.22875 23.4736 7.82287 22.3752 7.84274 21.1569C7.85779 20.147 8.10289 19.1925 8.71353 18.3361C9.12966 17.7532 9.43016 17.089 9.79209 16.4693C10.2136 15.743 10.6569 15.027 11.0772 14.3013C11.7673 13.1047 12.4286 11.8925 13.138 10.7073C13.5041 10.0967 13.7607 9.47221 13.7095 8.75498C13.6294 7.63547 13.1199 6.78033 12.1263 6.22269C11.5421 5.89448 10.9706 5.54219 10.3931 5.19893C10.9279 4.26009 11.3922 3.27547 12.104 2.44924C13.1549 1.21759 14.6016 0.389862 16.1959 0.10793C17.7903 -0.174002 19.433 0.107426 20.8426 0.903972C22.9468 2.08491 25.0262 3.3092 27.1165 4.51422C27.1761 4.54975 27.2471 4.56842 27.2742 4.64309Z" fill="url(#paint0_linear_734_4143)"/>
<path d="M9.98478 25.4462C9.64032 25.0584 9.22058 24.7428 8.9255 24.3068C7.76986 22.5996 7.58799 20.8044 8.42928 18.9164C8.58404 18.5684 8.61355 18.5714 8.93634 18.7563C9.39703 19.0194 9.8523 19.2952 10.3214 19.5391C11.8823 20.3389 13.8817 19.8083 14.7922 18.3166C15.6221 16.9575 16.4007 15.5657 17.2011 14.1879C18.2264 12.4214 19.2512 10.6531 20.2753 8.88303C20.5463 8.41511 20.8101 7.94238 21.0799 7.47386C21.1287 7.38834 21.1642 7.29019 21.2606 7.23779C21.7212 7.50096 22.1922 7.74907 22.642 8.0303C23.8633 8.7933 24.4222 9.9122 24.3698 11.3425C24.3445 11.8104 24.2056 12.2651 23.9651 12.6673C23.0383 14.2933 22.0934 15.9078 21.1612 17.5302C20.5879 18.5286 20.0254 19.5331 19.4581 20.5352L17.793 23.3866C16.921 24.8807 15.645 25.8202 13.9437 26.1568C12.5363 26.429 11.2169 26.1688 9.98478 25.4462Z" fill="url(#paint1_linear_734_4143)"/>
</g>
<defs>
<linearGradient id="paint0_linear_734_4143" x1="17.5581" y1="0.00134277" x2="5.91399" y2="18.8762" gradientUnits="userSpaceOnUse">
<stop stop-color="white"/>
<stop offset="0.976649" stop-color="#7C6999"/>
</linearGradient>
<linearGradient id="paint1_linear_734_4143" x1="16.1401" y1="7.23779" x2="16.1401" y2="26.2624" gradientUnits="userSpaceOnUse">
<stop stop-color="#F9F4FF"/>
<stop offset="1" stop-color="#767080"/>
</linearGradient>
<clipPath id="clip0_734_4143">
<rect width="30.8217" height="26.2606" fill="white"/>
</clipPath>
</defs>
</svg>
