<svg width="25" height="29" viewBox="0 0 25 29" fill="none" xmlns="http://www.w3.org/2000/svg">
<g clip-path="url(#clip0_734_4150)">
<path d="M6.27904 25.5845C4.59481 25.4693 2.90944 25.5568 1.22521 25.5361C0.0739974 25.5223 -0.120557 25.2955 0.0601834 24.1546C1.15537 17.2343 2.24595 10.3124 3.33193 3.38904C3.44706 2.66953 3.55527 1.95117 3.6773 1.23281C3.80393 0.469558 4.27363 0.0194321 5.04379 0.0263394C8.56766 0.056271 12.0938 -0.107201 15.6165 0.12074C16.6127 0.179868 17.5934 0.394278 18.5234 0.756211C20.9916 1.72323 22.1854 3.72519 21.9989 6.53646C21.9759 6.88182 21.7445 7.30087 22.1911 7.57255C21.9448 7.49657 21.8792 7.70955 21.7617 7.84194C21.7007 7.65314 21.8619 7.38145 21.6098 7.27324C21.1297 7.04142 20.6333 6.84482 20.1247 6.68497C19.0587 6.38565 17.9374 6.39371 16.853 6.35342C14.7128 6.27513 12.567 6.32118 10.4246 6.33615C9.8904 6.33615 9.39653 6.79663 9.19967 7.28705C9.05922 7.63241 9.10988 7.9985 9.01203 8.35077C8.84654 8.96945 8.72118 9.59817 8.63673 10.233C8.46635 11.4337 8.2764 12.6275 8.02659 13.8156C7.85049 14.592 7.86352 15.3994 8.06458 16.1698C7.68255 16.6243 7.46764 17.196 7.45559 17.7896C7.45559 18.1096 7.35773 18.4285 7.31053 18.7485C6.97438 21.0314 6.5231 23.2924 6.27904 25.5845Z" fill="white"/>
<path d="M6.2788 25.5846C6.52286 23.2925 6.96953 21.0315 7.30799 18.7533C7.35519 18.4333 7.44959 18.1144 7.45304 17.7943C7.46509 17.2007 7.68001 16.6291 8.06204 16.1746C8.35445 16.0042 8.67563 15.9846 9.00258 15.9858C9.86484 15.9858 10.7294 15.9984 11.5871 15.9858C13.3139 15.9581 15.0142 15.7244 16.6133 15.0084C19.7215 13.6189 21.1928 11.0609 21.7592 7.84784C21.8743 7.71545 21.9422 7.50247 22.1886 7.57845C23.2247 8.06657 23.7612 8.9507 24.0593 9.98909C25.0494 13.4427 23.1464 17.9843 19.999 19.6938C18.7465 20.3742 17.3742 20.6355 15.9697 20.7173C15.4528 20.7472 14.9336 20.7253 14.4167 20.7472C13.7433 20.7737 13.3507 21.1133 13.2414 21.7833C12.9317 23.6747 12.637 25.5685 12.3296 27.4599C12.1753 28.4074 11.8311 28.6986 10.8698 28.7032C9.48839 28.7094 8.10693 28.7094 6.72547 28.7032C6.02438 28.7032 5.78494 28.427 5.90351 27.7339C6.02439 27.0144 6.05316 26.2822 6.2788 25.5846Z" fill="#ECECEC"/>
<path d="M21.7589 7.84667C21.1925 11.0597 19.7155 13.6177 16.6129 15.0072C15.0139 15.7233 13.3193 15.957 11.5867 15.9846C10.7256 15.9984 9.85991 15.9846 9.00225 15.9846C8.67531 15.9846 8.35412 16.003 8.06171 16.1734C7.86065 15.403 7.84762 14.5956 8.02372 13.8192C8.27353 12.6311 8.46348 11.4373 8.63386 10.2366C8.71831 9.60175 8.84367 8.97303 9.00916 8.35435C9.10701 8.00208 9.05636 7.6383 9.19681 7.29063C9.39367 6.80367 9.88754 6.34318 10.4217 6.33973C12.5641 6.32476 14.71 6.27871 16.8501 6.357C17.9403 6.39729 19.0558 6.38923 20.1218 6.68855C20.6305 6.8484 21.1268 7.045 21.6069 7.27682C21.859 7.38964 21.6978 7.65787 21.7589 7.84667Z" fill="#F4F4F4"/>
</g>
<defs>
<clipPath id="clip0_734_4150">
<rect width="24.3217" height="28.7044" fill="white"/>
</clipPath>
</defs>
</svg>
