<svg width="42" height="42" viewBox="0 0 42 42" fill="none" xmlns="http://www.w3.org/2000/svg">
<path d="M24.4762 16.2457V12.1631H33.764V5.72095L7.98252 5.72095L7.98252 12.1631L17.2965 12.1631V16.2457C9.49351 16.621 3.63556 18.1875 3.63556 20.064C3.63556 21.9405 9.48699 23.4971 17.2965 23.8822L17.2965 37.3572H24.4762V23.8822C32.2792 23.5102 38.1371 21.9437 38.1371 20.064C38.1371 18.1842 32.2857 16.621 24.4762 16.2457ZM20.8863 22.6617C12.4372 22.6617 5.58712 21.3563 5.58712 19.7833C5.58712 18.429 10.577 17.2933 17.29 16.9898V21.6011C18.4452 21.6533 19.6462 21.6827 20.8798 21.6827C22.1134 21.6827 23.3209 21.6533 24.4696 21.6011V16.9898C31.1826 17.2933 36.1725 18.429 36.1725 19.7833C36.1855 21.3726 29.3355 22.6617 20.8863 22.6617Z" fill="white"/>
</svg>
