<svg width="147" height="147" viewBox="0 0 147 147" fill="none" xmlns="http://www.w3.org/2000/svg">
<mask id="path-1-inside-1_734_4158" fill="white">
<path d="M24.4688 65.1833L32.5142 65.2355L32.4881 65.1999L32.4881 73.3261L40.8519 73.3261L40.8519 65.207L40.8234 65.2403C43.5258 65.2403 46.2266 65.2403 48.9258 65.2403L48.895 65.207L48.895 73.3475L73.3069 73.3475L73.3069 65.1642L65.3921 65.1642L65.3921 57.2234C65.8152 57.1625 66.241 57.1228 66.6681 57.1046C71.1731 57.1046 75.679 57.1046 80.1856 57.1046L81.502 57.1046L81.502 49.0259L65.4135 49.0259L65.4135 57.2471C62.6002 57.2075 59.7877 57.1679 56.976 57.1283L56.9998 57.1568L56.9998 48.976L65.2068 48.976L65.2068 40.8307L73.3116 40.8307L73.3116 32.6855L65.3137 32.6855L65.3137 24.4453L57.1542 24.4453L57.1542 16.1717C59.9073 16.1717 62.658 16.1717 65.4064 16.1717L65.4064 24.3383L73.3472 24.3383L73.3472 16.205L65.3802 16.205L65.3802 8.15959L73.3758 8.15959L73.3758 0.031003L81.5329 0.0310034L81.5329 16.2288L89.6662 16.2288L89.6662 24.3882L81.6825 24.3882L81.6825 32.581L89.6686 32.581L89.6686 40.7452L81.673 40.7452L81.673 48.919L89.7375 48.919L89.7375 57.0642L130.48 57.0642L130.48 65.2355L138.763 65.2355L138.73 65.2023L138.73 81.6329L138.763 81.5972L130.587 81.5972L130.587 89.645L122.271 89.645L122.271 81.5664L130.478 81.5664L130.478 65.3139L114.32 65.3139L114.32 73.4235L122.309 73.4235L122.309 81.602L114.337 81.6923L114.368 81.7184C114.33 79.6679 114.287 77.6173 114.252 75.5667C114.252 74.9038 114.252 74.2385 114.252 73.4473L106.106 73.4473L106.106 65.3282L81.6635 65.3282L81.6635 73.4069L89.8278 73.4069L89.8278 81.5806L89.8634 81.5426L81.6517 81.5426L81.6517 106.045L89.6804 106.045L89.6804 114.2L81.673 114.2L81.673 122.388L89.6804 122.388L89.6804 130.549L81.6802 130.549L81.6802 138.685L89.6804 138.685L89.6804 146.807L81.6326 146.807L81.6327 138.628L65.3018 138.628L65.3303 138.657L65.3303 130.618L73.3164 130.618L73.3164 122.411L65.3375 122.411L65.3375 114.14L65.2947 114.185L73.3116 114.185L73.3116 106.076L65.2947 106.076L65.3303 106.111L65.3303 97.8402L73.3449 97.8402L73.3449 81.6614L57.0639 81.6614L57.0639 89.6807L48.895 89.6807L48.9282 89.714L48.9282 81.5687L32.5736 81.5687L32.5736 73.49L24.4142 73.49L24.4142 81.602L16.3355 81.602L16.3806 81.6424L16.3806 73.4496L24.5068 73.4496L24.5068 65.1476L24.4688 65.1833Z"/>
</mask>
<path d="M24.4688 65.1833L32.5142 65.2355L32.4881 65.1999L32.4881 73.3261L40.8519 73.3261L40.8519 65.207L40.8234 65.2403C43.5258 65.2403 46.2266 65.2403 48.9258 65.2403L48.895 65.207L48.895 73.3475L73.3069 73.3475L73.3069 65.1642L65.3921 65.1642L65.3921 57.2234C65.8152 57.1625 66.241 57.1228 66.6681 57.1046C71.1731 57.1046 75.679 57.1046 80.1856 57.1046L81.502 57.1046L81.502 49.0259L65.4135 49.0259L65.4135 57.2471C62.6002 57.2075 59.7877 57.1679 56.976 57.1283L56.9998 57.1568L56.9998 48.976L65.2068 48.976L65.2068 40.8307L73.3116 40.8307L73.3116 32.6855L65.3137 32.6855L65.3137 24.4453L57.1542 24.4453L57.1542 16.1717C59.9073 16.1717 62.658 16.1717 65.4064 16.1717L65.4064 24.3383L73.3472 24.3383L73.3472 16.205L65.3802 16.205L65.3802 8.15959L73.3758 8.15959L73.3758 0.031003L81.5329 0.0310034L81.5329 16.2288L89.6662 16.2288L89.6662 24.3882L81.6825 24.3882L81.6825 32.581L89.6686 32.581L89.6686 40.7452L81.673 40.7452L81.673 48.919L89.7375 48.919L89.7375 57.0642L130.48 57.0642L130.48 65.2355L138.763 65.2355L138.73 65.2023L138.73 81.6329L138.763 81.5972L130.587 81.5972L130.587 89.645L122.271 89.645L122.271 81.5664L130.478 81.5664L130.478 65.3139L114.32 65.3139L114.32 73.4235L122.309 73.4235L122.309 81.602L114.337 81.6923L114.368 81.7184C114.33 79.6679 114.287 77.6173 114.252 75.5667C114.252 74.9038 114.252 74.2385 114.252 73.4473L106.106 73.4473L106.106 65.3282L81.6635 65.3282L81.6635 73.4069L89.8278 73.4069L89.8278 81.5806L89.8634 81.5426L81.6517 81.5426L81.6517 106.045L89.6804 106.045L89.6804 114.2L81.673 114.2L81.673 122.388L89.6804 122.388L89.6804 130.549L81.6802 130.549L81.6802 138.685L89.6804 138.685L89.6804 146.807L81.6326 146.807L81.6327 138.628L65.3018 138.628L65.3303 138.657L65.3303 130.618L73.3164 130.618L73.3164 122.411L65.3375 122.411L65.3375 114.14L65.2947 114.185L73.3116 114.185L73.3116 106.076L65.2947 106.076L65.3303 106.111L65.3303 97.8402L73.3449 97.8402L73.3449 81.6614L57.0639 81.6614L57.0639 89.6807L48.895 89.6807L48.9282 89.714L48.9282 81.5687L32.5736 81.5687L32.5736 73.49L24.4142 73.49L24.4142 81.602L16.3355 81.602L16.3806 81.6424L16.3806 73.4496L24.5068 73.4496L24.5068 65.1476L24.4688 65.1833Z" stroke="#5E18C6" stroke-width="2" mask="url(#path-1-inside-1_734_4158)"/>
<path d="M97.935 -2.1354e-06L146.787 0L146.787 48.8666L97.935 48.8666L97.935 -2.1354e-06ZM106.163 8.21175L106.163 40.6905L138.666 40.6905L138.666 8.21175L106.163 8.21175Z" fill="url(#paint0_linear_734_4158)"/>
<path d="M97.9707 97.9683L146.806 97.9683L146.806 146.79L97.9707 146.79L97.9707 97.9683ZM138.68 106.175L106.175 106.175L106.175 138.602L138.68 138.602L138.68 106.175Z" fill="url(#paint1_linear_734_4158)"/>
<path d="M48.8643 0.0358887L48.8643 48.8739L0.00013138 48.8739L0.000133514 0.0358865L48.8643 0.0358887ZM40.7096 40.7121L40.7096 8.23576L8.15724 8.23576L8.15724 40.7121L40.7096 40.7121Z" fill="url(#paint2_linear_734_4158)"/>
<path d="M48.8951 122.485L48.8951 130.55L40.7974 130.55L40.7974 146.89C38.1837 146.89 35.6936 146.89 33.2106 146.89C32.3576 146.89 32.5952 146.215 32.5928 145.757C32.5785 141.161 32.5928 136.568 32.5928 131.975L32.5928 130.55L24.4262 130.55L24.4595 130.585L24.4595 122.471L24.4286 122.507L32.5073 122.507L32.5073 114.155L24.4286 114.155L24.4618 114.188L24.4618 106.043L32.6023 106.043L32.6023 97.8594L40.8449 97.8594L40.8449 89.7094L48.9236 89.7094L48.8904 89.6761L48.8904 97.9426L56.9691 97.9426L56.9691 106.112L57.0047 106.076L48.8761 106.076L48.8761 97.9972L40.8948 97.9972L40.8948 122.511L48.9284 122.511L48.8951 122.485Z" fill="url(#paint3_linear_734_4158)"/>
<path d="M7.92408 81.7203C10.7421 81.695 13.5617 81.668 16.383 81.6395L16.3378 81.5991C16.3188 82.0743 16.2831 82.5496 16.2831 83.0248C16.2831 91.9161 16.2831 100.807 16.2831 109.696C16.2831 111.196 16.3188 112.697 16.3378 114.197L16.3877 114.151L8.0714 114.151L8.0714 112.726C8.0714 102.848 8.0714 92.9695 8.0714 83.0913C8.0714 82.6161 7.99062 82.1599 7.94785 81.6965L7.92408 81.7203Z" fill="url(#paint4_linear_734_4158)"/>
<path d="M65.3373 114.14L57.1018 114.14L57.1018 122.485L48.8948 122.485L48.9281 122.511L48.9281 114.154L57.0068 114.154L57.0068 106.075L56.9711 106.111L65.3302 106.111L65.2946 106.075L65.2946 114.185L65.3373 114.14Z" fill="url(#paint5_linear_734_4158)"/>
<path d="M16.3856 130.549L7.9362 130.478L7.96473 130.509L8.07164 124.134C8.07164 123.628 8.07164 123.121 8.07164 122.449L16.3879 122.449L16.3879 114.154L16.3381 114.199C19.042 114.199 21.7452 114.199 24.4476 114.199L24.4144 114.166L24.4144 122.525L24.4453 122.489L16.3381 122.489L16.3381 130.597L16.3856 130.549Z" fill="url(#paint6_linear_734_4158)"/>
<path d="M65.3021 138.628L65.3021 146.897L62.0516 146.897C60.6664 146.897 59.2787 146.927 57.8959 146.87C57.6131 146.87 57.1118 146.514 57.107 146.314C57.0524 143.831 57.0714 141.346 57.0714 138.656L65.3306 138.656L65.3021 138.628Z" fill="url(#paint7_linear_734_4158)"/>
<path d="M114.337 81.6831L114.337 89.6596L106.164 89.6596L106.164 81.7069C108.932 81.7069 111.65 81.7069 114.368 81.7069L114.337 81.6831Z" fill="url(#paint8_linear_734_4158)"/>
<path d="M32.5145 65.2351L32.5145 57.1564L40.8308 57.1564L40.8308 65.2351L40.8593 65.2018L32.4955 65.2018L32.5145 65.2351Z" fill="url(#paint9_linear_734_4158)"/>
<path d="M7.9433 81.6997L0.0546933 81.6997L0.0546937 73.4974L7.92666 73.4974L7.92666 81.7187L7.9433 81.6997Z" fill="url(#paint10_linear_734_4158)"/>
<path d="M89.828 81.5832L97.814 81.5832L97.814 89.6619L89.8589 89.6619L89.8589 81.5476L89.828 81.5832Z" fill="url(#paint11_linear_734_4158)"/>
<path d="M138.73 81.6328L146.766 81.6328L146.766 89.6806L138.763 89.6806L138.763 81.6019L138.73 81.6328Z" fill="url(#paint12_linear_734_4158)"/>
<path d="M138.763 65.2354L138.763 57.1995L146.804 57.1995L146.804 65.2069L138.725 65.2069L138.763 65.2354Z" fill="url(#paint13_linear_734_4158)"/>
<path d="M24.5093 65.1474L16.3712 65.1474L16.3712 57.1875L24.4666 57.1875L24.4666 65.1854L24.5093 65.1474Z" fill="url(#paint14_linear_734_4158)"/>
<path d="M48.926 65.2354L48.926 57.1567L57.0047 57.1567L56.9809 57.1282L56.9809 65.2069L48.9022 65.2069L48.926 65.2354Z" fill="url(#paint15_linear_734_4158)"/>
<path d="M24.4166 130.549L24.4166 138.587L16.3855 138.587L16.3855 130.549L16.3403 130.587C19.0411 130.587 21.7443 130.587 24.4499 130.587L24.4166 130.549Z" fill="url(#paint16_linear_734_4158)"/>
<path d="M7.94329 130.473L7.94329 138.59L0.0546862 138.59L0.0546865 130.511C2.70877 130.511 5.34148 130.511 7.97418 130.511L7.94329 130.473Z" fill="url(#paint17_linear_734_4158)"/>
<path d="M114.306 32.5502L114.306 16.3311L130.445 16.3311L130.445 32.5502L114.306 32.5502Z" fill="url(#paint18_linear_734_4158)"/>
<path d="M130.471 114.297L130.471 130.49L114.314 130.49L114.314 114.297L130.471 114.297Z" fill="url(#paint19_linear_734_4158)"/>
<path d="M32.5189 16.3333L32.5189 32.55L16.3852 32.55L16.3853 16.3333L32.5189 16.3333Z" fill="url(#paint20_linear_734_4158)"/>
<defs>
<linearGradient id="paint0_linear_734_4158" x1="146.787" y1="24.4333" x2="97.935" y2="24.4333" gradientUnits="userSpaceOnUse">
<stop stop-color="#5E18C6"/>
<stop offset="0.538462" stop-color="#5E18C6"/>
<stop offset="0.971154" stop-color="#5E18C6"/>
</linearGradient>
<linearGradient id="paint1_linear_734_4158" x1="146.806" y1="122.379" x2="97.9707" y2="122.379" gradientUnits="userSpaceOnUse">
<stop stop-color="#5E18C6"/>
<stop offset="0.538462" stop-color="#5E18C6"/>
<stop offset="0.971154" stop-color="#5E18C6"/>
</linearGradient>
<linearGradient id="paint2_linear_734_4158" x1="48.8643" y1="24.4549" x2="0.000132447" y2="24.4549" gradientUnits="userSpaceOnUse">
<stop stop-color="#5E18C6"/>
<stop offset="0.538462" stop-color="#5E18C6"/>
<stop offset="0.971154" stop-color="#5E18C6"/>
</linearGradient>
<linearGradient id="paint3_linear_734_4158" x1="57.0047" y1="118.283" x2="24.4262" y2="118.283" gradientUnits="userSpaceOnUse">
<stop stop-color="#5E18C6"/>
<stop offset="0.538462" stop-color="#5E18C6"/>
<stop offset="0.971154" stop-color="#5E18C6"/>
</linearGradient>
<linearGradient id="paint4_linear_734_4158" x1="16.3877" y1="97.8979" x2="7.92408" y2="97.8979" gradientUnits="userSpaceOnUse">
<stop stop-color="#5E18C6"/>
<stop offset="0.538462" stop-color="#5E18C6"/>
<stop offset="0.971154" stop-color="#5E18C6"/>
</linearGradient>
<linearGradient id="paint5_linear_734_4158" x1="65.3373" y1="114.293" x2="48.8948" y2="114.293" gradientUnits="userSpaceOnUse">
<stop stop-color="#5E18C6"/>
<stop offset="0.538462" stop-color="#5E18C6"/>
<stop offset="0.971154" stop-color="#5E18C6"/>
</linearGradient>
<linearGradient id="paint6_linear_734_4158" x1="24.4476" y1="122.375" x2="7.9362" y2="122.375" gradientUnits="userSpaceOnUse">
<stop stop-color="#5E18C6"/>
<stop offset="0.538462" stop-color="#5E18C6"/>
<stop offset="0.971154" stop-color="#5E18C6"/>
</linearGradient>
<linearGradient id="paint7_linear_734_4158" x1="65.3306" y1="142.766" x2="57.0682" y2="142.766" gradientUnits="userSpaceOnUse">
<stop stop-color="#5E18C6"/>
<stop offset="0.538462" stop-color="#5E18C6"/>
<stop offset="0.971154" stop-color="#5E18C6"/>
</linearGradient>
<linearGradient id="paint8_linear_734_4158" x1="114.368" y1="85.6714" x2="106.164" y2="85.6714" gradientUnits="userSpaceOnUse">
<stop stop-color="#5E18C6"/>
<stop offset="0.538462" stop-color="#5E18C6"/>
<stop offset="0.971154" stop-color="#5E18C6"/>
</linearGradient>
<linearGradient id="paint9_linear_734_4158" x1="40.8593" y1="61.1957" x2="32.4955" y2="61.1957" gradientUnits="userSpaceOnUse">
<stop stop-color="#5E18C6"/>
<stop offset="0.538462" stop-color="#5E18C6"/>
<stop offset="0.971154" stop-color="#5E18C6"/>
</linearGradient>
<linearGradient id="paint10_linear_734_4158" x1="7.9433" y1="77.6081" x2="0.0546935" y2="77.6081" gradientUnits="userSpaceOnUse">
<stop stop-color="#5E18C6"/>
<stop offset="0.538462" stop-color="#5E18C6"/>
<stop offset="0.971154" stop-color="#5E18C6"/>
</linearGradient>
<linearGradient id="paint11_linear_734_4158" x1="97.814" y1="85.6048" x2="89.828" y2="85.6048" gradientUnits="userSpaceOnUse">
<stop stop-color="#5E18C6"/>
<stop offset="0.538462" stop-color="#5E18C6"/>
<stop offset="0.971154" stop-color="#5E18C6"/>
</linearGradient>
<linearGradient id="paint12_linear_734_4158" x1="146.766" y1="85.6413" x2="138.73" y2="85.6413" gradientUnits="userSpaceOnUse">
<stop stop-color="#5E18C6"/>
<stop offset="0.538462" stop-color="#5E18C6"/>
<stop offset="0.971154" stop-color="#5E18C6"/>
</linearGradient>
<linearGradient id="paint13_linear_734_4158" x1="146.804" y1="61.2174" x2="138.725" y2="61.2174" gradientUnits="userSpaceOnUse">
<stop stop-color="#5E18C6"/>
<stop offset="0.538462" stop-color="#5E18C6"/>
<stop offset="0.971154" stop-color="#5E18C6"/>
</linearGradient>
<linearGradient id="paint14_linear_734_4158" x1="24.5093" y1="61.1864" x2="16.3712" y2="61.1864" gradientUnits="userSpaceOnUse">
<stop stop-color="#5E18C6"/>
<stop offset="0.538462" stop-color="#5E18C6"/>
<stop offset="0.971154" stop-color="#5E18C6"/>
</linearGradient>
<linearGradient id="paint15_linear_734_4158" x1="57.0047" y1="61.1818" x2="48.9022" y2="61.1818" gradientUnits="userSpaceOnUse">
<stop stop-color="#5E18C6"/>
<stop offset="0.538462" stop-color="#5E18C6"/>
<stop offset="0.971154" stop-color="#5E18C6"/>
</linearGradient>
<linearGradient id="paint16_linear_734_4158" x1="24.4499" y1="134.568" x2="16.3403" y2="134.568" gradientUnits="userSpaceOnUse">
<stop stop-color="#5E18C6"/>
<stop offset="0.538462" stop-color="#5E18C6"/>
<stop offset="0.971154" stop-color="#5E18C6"/>
</linearGradient>
<linearGradient id="paint17_linear_734_4158" x1="7.97418" y1="134.532" x2="0.0546864" y2="134.532" gradientUnits="userSpaceOnUse">
<stop stop-color="#5E18C6"/>
<stop offset="0.538462" stop-color="#5E18C6"/>
<stop offset="0.971154" stop-color="#5E18C6"/>
</linearGradient>
<linearGradient id="paint18_linear_734_4158" x1="130.445" y1="24.4406" x2="114.306" y2="24.4406" gradientUnits="userSpaceOnUse">
<stop stop-color="#5E18C6"/>
<stop offset="0.538462" stop-color="#5E18C6"/>
<stop offset="0.971154" stop-color="#5E18C6"/>
</linearGradient>
<linearGradient id="paint19_linear_734_4158" x1="130.471" y1="122.393" x2="114.314" y2="122.393" gradientUnits="userSpaceOnUse">
<stop stop-color="#5E18C6"/>
<stop offset="0.538462" stop-color="#5E18C6"/>
<stop offset="0.971154" stop-color="#5E18C6"/>
</linearGradient>
<linearGradient id="paint20_linear_734_4158" x1="32.5189" y1="24.4416" x2="16.3852" y2="24.4416" gradientUnits="userSpaceOnUse">
<stop stop-color="#5E18C6"/>
<stop offset="0.538462" stop-color="#5E18C6"/>
<stop offset="0.971154" stop-color="#5E18C6"/>
</linearGradient>
</defs>
</svg>
