<svg width="241" height="167" viewBox="0 0 241 167" fill="none" xmlns="http://www.w3.org/2000/svg">
<rect width="241" height="167" fill="#1E1E1E"/>
<path d="M-2190 -3503C-2190 -3504.1 -2189.1 -3505 -2188 -3505H4024C4025.1 -3505 4026 -3504.1 4026 -3503V4731C4026 4732.1 4025.1 4733 4024 4733H-2188C-2189.1 4733 -2190 4732.1 -2190 4731V-3503Z" fill="#444444"/>
<path d="M-2188 -3505V-3504H4024V-3505V-3506H-2188V-3505ZM4026 -3503H4025V4731H4026H4027V-3503H4026ZM4024 4733V4732H-2188V4733V4734H4024V4733ZM-2190 4731H-2189V-3503H-2190H-2191V4731H-2190ZM-2188 4733V4732C-2188.55 4732 -2189 4731.55 -2189 4731H-2190H-2191C-2191 4732.66 -2189.66 4734 -2188 4734V4733ZM4026 4731H4025C4025 4731.55 4024.55 4732 4024 4732V4733V4734C4025.66 4734 4027 4732.66 4027 4731H4026ZM4024 -3505V-3504C4024.55 -3504 4025 -3503.55 4025 -3503H4026H4027C4027 -3504.66 4025.66 -3506 4024 -3506V-3505ZM-2188 -3505V-3506C-2189.66 -3506 -2191 -3504.66 -2191 -3503H-2190H-2189C-2189 -3503.55 -2188.55 -3504 -2188 -3504V-3505Z" fill="white" fill-opacity="0.1"/>
<g clip-path="url(#clip0_734_252)">
<rect width="1280" height="5897" transform="translate(-40 -2398)" fill="black"/>
<g clip-path="url(#clip1_734_252)">
<rect y="-54" width="1200" height="323" rx="4" fill="black"/>
<g clip-path="url(#clip2_734_252)">
<path d="M23.2188 25.5822C23.2188 16.3327 15.7206 8.83447 6.47109 8.83447C-2.77841 8.83447 -10.2766 16.3327 -10.2766 25.5822C-10.2766 34.8317 -2.77841 42.3299 6.47109 42.3299C15.7206 42.3299 23.2188 34.8317 23.2188 25.5822Z" fill="url(#paint0_radial_734_252)"/>
<path d="M22.8158 25.5822C22.8158 16.5553 15.498 9.23755 6.47112 9.23755C-2.55581 9.23755 -9.87358 16.5553 -9.87358 25.5822C-9.87358 34.6092 -2.55581 41.9269 6.47112 41.9269C15.498 41.9269 22.8158 34.6092 22.8158 25.5822Z" stroke="#5E18C6" stroke-opacity="0.29" stroke-width="0.806056"/>
<path d="M56.7142 25.5822C56.7142 16.3327 49.216 8.83447 39.9665 8.83447C30.717 8.83447 23.2188 16.3327 23.2188 25.5822C23.2188 34.8317 30.717 42.3299 39.9665 42.3299C49.216 42.3299 56.7142 34.8317 56.7142 25.5822Z" fill="url(#paint1_radial_734_252)"/>
<path d="M56.3112 25.5822C56.3112 16.5553 48.9934 9.23755 39.9665 9.23755C30.9396 9.23755 23.6218 16.5553 23.6218 25.5822C23.6218 34.6092 30.9396 41.9269 39.9665 41.9269C48.9934 41.9269 56.3112 34.6092 56.3112 25.5822Z" stroke="#5E18C6" stroke-opacity="0.29" stroke-width="0.806056"/>
<path d="M90.2095 25.5822C90.2095 16.3327 82.7113 8.83447 73.4618 8.83447C64.2123 8.83447 56.7141 16.3327 56.7141 25.5822C56.7141 34.8317 64.2123 42.3299 73.4618 42.3299C82.7113 42.3299 90.2095 34.8317 90.2095 25.5822Z" fill="url(#paint2_radial_734_252)"/>
<path d="M89.8066 25.5822C89.8066 16.5553 82.4888 9.23755 73.4619 9.23755C64.435 9.23755 57.1172 16.5553 57.1172 25.5822C57.1172 34.6092 64.435 41.9269 73.4619 41.9269C82.4888 41.9269 89.8066 34.6092 89.8066 25.5822Z" stroke="#5E18C6" stroke-opacity="0.29" stroke-width="0.806056"/>
<path d="M123.705 25.5822C123.705 16.3327 116.207 8.83447 106.957 8.83447C97.7076 8.83447 90.2094 16.3327 90.2094 25.5822C90.2094 34.8317 97.7076 42.3299 106.957 42.3299C116.207 42.3299 123.705 34.8317 123.705 25.5822Z" fill="url(#paint3_radial_734_252)"/>
<path d="M123.302 25.5822C123.302 16.5553 115.984 9.23755 106.957 9.23755C97.9302 9.23755 90.6124 16.5553 90.6124 25.5822C90.6124 34.6092 97.9302 41.9269 106.957 41.9269C115.984 41.9269 123.302 34.6092 123.302 25.5822Z" stroke="#5E18C6" stroke-opacity="0.29" stroke-width="0.806056"/>
<path d="M157.201 25.5822C157.201 16.3327 149.703 8.83447 140.453 8.83447C131.204 8.83447 123.705 16.3327 123.705 25.5822C123.705 34.8317 131.204 42.3299 140.453 42.3299C149.703 42.3299 157.201 34.8317 157.201 25.5822Z" fill="url(#paint4_radial_734_252)"/>
<path d="M156.798 25.5822C156.798 16.5553 149.48 9.23755 140.453 9.23755C131.426 9.23755 124.108 16.5553 124.108 25.5822C124.108 34.6092 131.426 41.9269 140.453 41.9269C149.48 41.9269 156.798 34.6092 156.798 25.5822Z" stroke="#5E18C6" stroke-opacity="0.29" stroke-width="0.806056"/>
<path d="M190.696 25.5822C190.696 16.3327 183.198 8.83447 173.948 8.83447C164.699 8.83447 157.2 16.3327 157.2 25.5822C157.2 34.8317 164.699 42.3299 173.948 42.3299C183.198 42.3299 190.696 34.8317 190.696 25.5822Z" fill="url(#paint5_radial_734_252)"/>
<path d="M190.293 25.5822C190.293 16.5553 182.975 9.23755 173.948 9.23755C164.921 9.23755 157.603 16.5553 157.603 25.5822C157.603 34.6092 164.921 41.9269 173.948 41.9269C182.975 41.9269 190.293 34.6092 190.293 25.5822Z" stroke="#5E18C6" stroke-opacity="0.29" stroke-width="0.806056"/>
<path d="M224.191 25.5822C224.191 16.3327 216.693 8.83447 207.443 8.83447C198.194 8.83447 190.695 16.3327 190.695 25.5822C190.695 34.8317 198.194 42.3299 207.443 42.3299C216.693 42.3299 224.191 34.8317 224.191 25.5822Z" fill="url(#paint6_radial_734_252)"/>
<path d="M223.788 25.5822C223.788 16.5553 216.47 9.23755 207.443 9.23755C198.416 9.23755 191.098 16.5553 191.098 25.5822C191.098 34.6092 198.416 41.9269 207.443 41.9269C216.47 41.9269 223.788 34.6092 223.788 25.5822Z" stroke="#5E18C6" stroke-opacity="0.29" stroke-width="0.806056"/>
<path d="M23.2188 62.3017C23.2188 53.0522 15.7206 45.554 6.47109 45.554C-2.77841 45.554 -10.2766 53.0522 -10.2766 62.3017C-10.2766 71.5512 -2.77841 79.0494 6.47109 79.0494C15.7206 79.0494 23.2188 71.5512 23.2188 62.3017Z" fill="url(#paint7_radial_734_252)"/>
<path d="M22.8158 62.3017C22.8158 53.2748 15.498 45.957 6.47112 45.957C-2.55581 45.957 -9.87358 53.2748 -9.87358 62.3017C-9.87358 71.3287 -2.55581 78.6464 6.47112 78.6464C15.498 78.6464 22.8158 71.3287 22.8158 62.3017Z" stroke="#5E18C6" stroke-opacity="0.29" stroke-width="0.806056"/>
<path d="M56.7142 62.3017C56.7142 53.0522 49.216 45.554 39.9665 45.554C30.717 45.554 23.2188 53.0522 23.2188 62.3017C23.2188 71.5512 30.717 79.0494 39.9665 79.0494C49.216 79.0494 56.7142 71.5512 56.7142 62.3017Z" fill="url(#paint8_radial_734_252)"/>
<path d="M56.3112 62.3017C56.3112 53.2748 48.9934 45.957 39.9665 45.957C30.9396 45.957 23.6218 53.2748 23.6218 62.3017C23.6218 71.3287 30.9396 78.6464 39.9665 78.6464C48.9934 78.6464 56.3112 71.3287 56.3112 62.3017Z" stroke="#5E18C6" stroke-opacity="0.29" stroke-width="0.806056"/>
<path d="M85.2057 62.3017C85.2057 54.434 78.8276 48.0559 70.9599 48.0559C63.0922 48.0559 56.7141 54.434 56.7141 62.3017C56.7141 70.1694 63.0922 76.5475 70.9599 76.5475C78.8276 76.5475 85.2057 70.1694 85.2057 62.3017Z" fill="url(#paint9_radial_734_252)"/>
<path d="M118.701 62.3017C118.701 53.0522 111.203 45.554 101.953 45.554C92.704 45.554 85.2058 53.0522 85.2058 62.3017C85.2058 71.5512 92.704 79.0494 101.953 79.0494C111.203 79.0494 118.701 71.5512 118.701 62.3017Z" fill="url(#paint10_radial_734_252)"/>
<path d="M118.298 62.3017C118.298 53.2748 110.98 45.957 101.953 45.957C92.9266 45.957 85.6088 53.2748 85.6088 62.3017C85.6088 71.3287 92.9266 78.6464 101.953 78.6464C110.98 78.6464 118.298 71.3287 118.298 62.3017Z" stroke="#5E18C6" stroke-opacity="0.29" stroke-width="0.806056"/>
<path d="M152.197 62.3017C152.197 53.0522 144.699 45.554 135.449 45.554C126.2 45.554 118.701 53.0522 118.701 62.3017C118.701 71.5512 126.2 79.0494 135.449 79.0494C144.699 79.0494 152.197 71.5512 152.197 62.3017Z" fill="url(#paint11_radial_734_252)"/>
<path d="M151.794 62.3017C151.794 53.2748 144.476 45.957 135.449 45.957C126.422 45.957 119.104 53.2748 119.104 62.3017C119.104 71.3287 126.422 78.6464 135.449 78.6464C144.476 78.6464 151.794 71.3287 151.794 62.3017Z" stroke="#5E18C6" stroke-opacity="0.29" stroke-width="0.806056"/>
<path d="M185.692 62.3017C185.692 53.0522 178.194 45.554 168.944 45.554C159.695 45.554 152.196 53.0522 152.196 62.3017C152.196 71.5512 159.695 79.0494 168.944 79.0494C178.194 79.0494 185.692 71.5512 185.692 62.3017Z" fill="url(#paint12_radial_734_252)"/>
<path d="M185.289 62.3017C185.289 53.2748 177.971 45.957 168.944 45.957C159.917 45.957 152.599 53.2748 152.599 62.3017C152.599 71.3287 159.917 78.6464 168.944 78.6464C177.971 78.6464 185.289 71.3287 185.289 62.3017Z" stroke="#5E18C6" stroke-opacity="0.29" stroke-width="0.806056"/>
<path d="M219.188 62.3017C219.188 53.0522 211.69 45.554 202.44 45.554C193.191 45.554 185.692 53.0522 185.692 62.3017C185.692 71.5512 193.191 79.0494 202.44 79.0494C211.69 79.0494 219.188 71.5512 219.188 62.3017Z" fill="url(#paint13_radial_734_252)"/>
<path d="M218.785 62.3017C218.785 53.2748 211.467 45.957 202.44 45.957C193.413 45.957 186.095 53.2748 186.095 62.3017C186.095 71.3287 193.413 78.6464 202.44 78.6464C211.467 78.6464 218.785 71.3287 218.785 62.3017Z" stroke="#5E18C6" stroke-opacity="0.29" stroke-width="0.806056"/>
<path d="M23.2188 99.0214C23.2188 89.7719 15.7206 82.2737 6.47109 82.2737C-2.77841 82.2737 -10.2766 89.7719 -10.2766 99.0214C-10.2766 108.271 -2.77841 115.769 6.47109 115.769C15.7206 115.769 23.2188 108.271 23.2188 99.0214Z" fill="url(#paint14_radial_734_252)"/>
<path d="M22.8158 99.0215C22.8158 89.9945 15.498 82.6768 6.47112 82.6768C-2.55581 82.6768 -9.87358 89.9945 -9.87358 99.0215C-9.87358 108.048 -2.55581 115.366 6.47112 115.366C15.498 115.366 22.8158 108.048 22.8158 99.0215Z" stroke="#5E18C6" stroke-opacity="0.29" stroke-width="0.806056"/>
<path d="M56.7142 99.0214C56.7142 89.7719 49.216 82.2737 39.9665 82.2737C30.717 82.2737 23.2188 89.7719 23.2188 99.0214C23.2188 108.271 30.717 115.769 39.9665 115.769C49.216 115.769 56.7142 108.271 56.7142 99.0214Z" fill="url(#paint15_radial_734_252)"/>
<path d="M56.3112 99.0215C56.3112 89.9945 48.9934 82.6768 39.9665 82.6768C30.9396 82.6768 23.6218 89.9945 23.6218 99.0215C23.6218 108.048 30.9396 115.366 39.9665 115.366C48.9934 115.366 56.3112 108.048 56.3112 99.0215Z" stroke="#5E18C6" stroke-opacity="0.29" stroke-width="0.806056"/>
<path d="M90.2095 99.0214C90.2095 89.7719 82.7113 82.2737 73.4618 82.2737C64.2123 82.2737 56.7141 89.7719 56.7141 99.0214C56.7141 108.271 64.2123 115.769 73.4618 115.769C82.7113 115.769 90.2095 108.271 90.2095 99.0214Z" fill="url(#paint16_radial_734_252)"/>
<path d="M89.8066 99.0215C89.8066 89.9945 82.4888 82.6768 73.4619 82.6768C64.435 82.6768 57.1172 89.9945 57.1172 99.0215C57.1172 108.048 64.435 115.366 73.4619 115.366C82.4888 115.366 89.8066 108.048 89.8066 99.0215Z" stroke="#5E18C6" stroke-opacity="0.29" stroke-width="0.806056"/>
<path d="M123.705 99.0214C123.705 89.7719 116.207 82.2737 106.957 82.2737C97.7076 82.2737 90.2094 89.7719 90.2094 99.0214C90.2094 108.271 97.7076 115.769 106.957 115.769C116.207 115.769 123.705 108.271 123.705 99.0214Z" fill="url(#paint17_radial_734_252)"/>
<path d="M123.302 99.0215C123.302 89.9945 115.984 82.6768 106.957 82.6768C97.9302 82.6768 90.6124 89.9945 90.6124 99.0215C90.6124 108.048 97.9302 115.366 106.957 115.366C115.984 115.366 123.302 108.048 123.302 99.0215Z" stroke="#5E18C6" stroke-opacity="0.29" stroke-width="0.806056"/>
<path d="M152.197 99.0212C152.197 91.1534 145.819 84.7754 137.951 84.7754C130.083 84.7754 123.705 91.1534 123.705 99.0212C123.705 106.889 130.083 113.267 137.951 113.267C145.819 113.267 152.197 106.889 152.197 99.0212Z" fill="url(#paint18_radial_734_252)"/>
<path d="M185.692 99.0214C185.692 89.7719 178.194 82.2737 168.944 82.2737C159.695 82.2737 152.196 89.7719 152.196 99.0214C152.196 108.271 159.695 115.769 168.944 115.769C178.194 115.769 185.692 108.271 185.692 99.0214Z" fill="url(#paint19_radial_734_252)"/>
<path d="M185.289 99.0215C185.289 89.9945 177.971 82.6768 168.944 82.6768C159.917 82.6768 152.599 89.9945 152.599 99.0215C152.599 108.048 159.917 115.366 168.944 115.366C177.971 115.366 185.289 108.048 185.289 99.0215Z" stroke="#5E18C6" stroke-opacity="0.29" stroke-width="0.806056"/>
<path d="M219.188 99.0214C219.188 89.7719 211.69 82.2737 202.44 82.2737C193.191 82.2737 185.692 89.7719 185.692 99.0214C185.692 108.271 193.191 115.769 202.44 115.769C211.69 115.769 219.188 108.271 219.188 99.0214Z" fill="url(#paint20_radial_734_252)"/>
<path d="M218.785 99.0215C218.785 89.9945 211.467 82.6768 202.44 82.6768C193.413 82.6768 186.095 89.9945 186.095 99.0215C186.095 108.048 193.413 115.366 202.44 115.366C211.467 115.366 218.785 108.048 218.785 99.0215Z" stroke="#5E18C6" stroke-opacity="0.29" stroke-width="0.806056"/>
<path d="M23.2188 135.741C23.2188 126.492 15.7206 118.993 6.47109 118.993C-2.77841 118.993 -10.2766 126.492 -10.2766 135.741C-10.2766 144.991 -2.77841 152.489 6.47109 152.489C15.7206 152.489 23.2188 144.991 23.2188 135.741Z" fill="url(#paint21_radial_734_252)"/>
<path d="M22.8158 135.741C22.8158 126.714 15.498 119.396 6.47112 119.396C-2.55581 119.396 -9.87358 126.714 -9.87358 135.741C-9.87358 144.768 -2.55581 152.086 6.47112 152.086C15.498 152.086 22.8158 144.768 22.8158 135.741Z" stroke="#5E18C6" stroke-opacity="0.29" stroke-width="0.806056"/>
<path d="M56.7142 135.741C56.7142 126.492 49.216 118.993 39.9665 118.993C30.717 118.993 23.2188 126.492 23.2188 135.741C23.2188 144.991 30.717 152.489 39.9665 152.489C49.216 152.489 56.7142 144.991 56.7142 135.741Z" fill="url(#paint22_radial_734_252)"/>
<path d="M56.3112 135.741C56.3112 126.714 48.9934 119.396 39.9665 119.396C30.9396 119.396 23.6218 126.714 23.6218 135.741C23.6218 144.768 30.9396 152.086 39.9665 152.086C48.9934 152.086 56.3112 144.768 56.3112 135.741Z" stroke="#5E18C6" stroke-opacity="0.29" stroke-width="0.806056"/>
<path d="M90.2095 135.741C90.2095 126.492 82.7113 118.993 73.4618 118.993C64.2123 118.993 56.7141 126.492 56.7141 135.741C56.7141 144.991 64.2123 152.489 73.4618 152.489C82.7113 152.489 90.2095 144.991 90.2095 135.741Z" fill="url(#paint23_radial_734_252)"/>
<path d="M89.8066 135.741C89.8066 126.714 82.4888 119.396 73.4619 119.396C64.435 119.396 57.1172 126.714 57.1172 135.741C57.1172 144.768 64.435 152.086 73.4619 152.086C82.4888 152.086 89.8066 144.768 89.8066 135.741Z" stroke="#5E18C6" stroke-opacity="0.29" stroke-width="0.806056"/>
<path d="M123.705 135.741C123.705 126.492 116.207 118.993 106.957 118.993C97.7076 118.993 90.2094 126.492 90.2094 135.741C90.2094 144.991 97.7076 152.489 106.957 152.489C116.207 152.489 123.705 144.991 123.705 135.741Z" fill="url(#paint24_radial_734_252)"/>
<path d="M123.302 135.741C123.302 126.714 115.984 119.396 106.957 119.396C97.9302 119.396 90.6124 126.714 90.6124 135.741C90.6124 144.768 97.9302 152.086 106.957 152.086C115.984 152.086 123.302 144.768 123.302 135.741Z" stroke="#5E18C6" stroke-opacity="0.29" stroke-width="0.806056"/>
<path d="M157.201 135.741C157.201 126.492 149.703 118.993 140.453 118.993C131.204 118.993 123.705 126.492 123.705 135.741C123.705 144.991 131.204 152.489 140.453 152.489C149.703 152.489 157.201 144.991 157.201 135.741Z" fill="url(#paint25_radial_734_252)"/>
<path d="M156.798 135.741C156.798 126.714 149.48 119.396 140.453 119.396C131.426 119.396 124.108 126.714 124.108 135.741C124.108 144.768 131.426 152.086 140.453 152.086C149.48 152.086 156.798 144.768 156.798 135.741Z" stroke="#5E18C6" stroke-opacity="0.29" stroke-width="0.806056"/>
<path d="M190.696 135.741C190.696 126.492 183.198 118.993 173.948 118.993C164.699 118.993 157.2 126.492 157.2 135.741C157.2 144.991 164.699 152.489 173.948 152.489C183.198 152.489 190.696 144.991 190.696 135.741Z" fill="url(#paint26_radial_734_252)"/>
<path d="M190.293 135.741C190.293 126.714 182.975 119.396 173.948 119.396C164.921 119.396 157.603 126.714 157.603 135.741C157.603 144.768 164.921 152.086 173.948 152.086C182.975 152.086 190.293 144.768 190.293 135.741Z" stroke="#5E18C6" stroke-opacity="0.29" stroke-width="0.806056"/>
<path d="M224.191 135.741C224.191 126.492 216.693 118.993 207.443 118.993C198.194 118.993 190.695 126.492 190.695 135.741C190.695 144.991 198.194 152.489 207.443 152.489C216.693 152.489 224.191 144.991 224.191 135.741Z" fill="url(#paint27_radial_734_252)"/>
<path d="M223.788 135.741C223.788 126.714 216.47 119.396 207.443 119.396C198.416 119.396 191.098 126.714 191.098 135.741C191.098 144.768 198.416 152.086 207.443 152.086C216.47 152.086 223.788 144.768 223.788 135.741Z" stroke="#5E18C6" stroke-opacity="0.29" stroke-width="0.806056"/>
</g>
<rect x="-13" width="253.963" height="166.766" fill="url(#paint28_radial_734_252)"/>
</g>
<rect x="0.5" y="-53.5" width="1199" height="322" rx="3.5" stroke="#BFA811"/>
</g>
<defs>
<radialGradient id="paint0_radial_734_252" cx="0" cy="0" r="1" gradientUnits="userSpaceOnUse" gradientTransform="translate(6.47109 25.5822) rotate(90) scale(16.7477)">
<stop stop-color="#181818"/>
<stop offset="1"/>
</radialGradient>
<radialGradient id="paint1_radial_734_252" cx="0" cy="0" r="1" gradientUnits="userSpaceOnUse" gradientTransform="translate(39.9665 25.5822) rotate(90) scale(16.7477)">
<stop stop-color="#181818"/>
<stop offset="1"/>
</radialGradient>
<radialGradient id="paint2_radial_734_252" cx="0" cy="0" r="1" gradientUnits="userSpaceOnUse" gradientTransform="translate(73.4618 25.5822) rotate(90) scale(16.7477)">
<stop stop-color="#181818"/>
<stop offset="1"/>
</radialGradient>
<radialGradient id="paint3_radial_734_252" cx="0" cy="0" r="1" gradientUnits="userSpaceOnUse" gradientTransform="translate(106.957 25.5822) rotate(90) scale(16.7477)">
<stop stop-color="#181818"/>
<stop offset="1"/>
</radialGradient>
<radialGradient id="paint4_radial_734_252" cx="0" cy="0" r="1" gradientUnits="userSpaceOnUse" gradientTransform="translate(140.452 25.5822) rotate(90) scale(16.7477 16.7477)">
<stop stop-color="#181818"/>
<stop offset="1"/>
</radialGradient>
<radialGradient id="paint5_radial_734_252" cx="0" cy="0" r="1" gradientUnits="userSpaceOnUse" gradientTransform="translate(173.948 25.5822) rotate(90) scale(16.7477 16.7477)">
<stop stop-color="#181818"/>
<stop offset="1"/>
</radialGradient>
<radialGradient id="paint6_radial_734_252" cx="0" cy="0" r="1" gradientUnits="userSpaceOnUse" gradientTransform="translate(207.443 25.5822) rotate(90) scale(16.7477 16.7477)">
<stop stop-color="#181818"/>
<stop offset="1"/>
</radialGradient>
<radialGradient id="paint7_radial_734_252" cx="0" cy="0" r="1" gradientUnits="userSpaceOnUse" gradientTransform="translate(6.47109 62.3017) rotate(90) scale(16.7477 16.7477)">
<stop stop-color="#181818"/>
<stop offset="1"/>
</radialGradient>
<radialGradient id="paint8_radial_734_252" cx="0" cy="0" r="1" gradientUnits="userSpaceOnUse" gradientTransform="translate(39.9665 62.3017) rotate(90) scale(16.7477 16.7477)">
<stop stop-color="#181818"/>
<stop offset="1"/>
</radialGradient>
<radialGradient id="paint9_radial_734_252" cx="0" cy="0" r="1" gradientUnits="userSpaceOnUse" gradientTransform="translate(70.9599 62.3017) rotate(90) scale(14.2458 14.2458)">
<stop stop-color="#5E18C6"/>
<stop offset="1"/>
</radialGradient>
<radialGradient id="paint10_radial_734_252" cx="0" cy="0" r="1" gradientUnits="userSpaceOnUse" gradientTransform="translate(101.953 62.3017) rotate(90) scale(16.7477 16.7477)">
<stop stop-color="#181818"/>
<stop offset="1"/>
</radialGradient>
<radialGradient id="paint11_radial_734_252" cx="0" cy="0" r="1" gradientUnits="userSpaceOnUse" gradientTransform="translate(135.448 62.3017) rotate(90) scale(16.7477 16.7477)">
<stop stop-color="#181818"/>
<stop offset="1"/>
</radialGradient>
<radialGradient id="paint12_radial_734_252" cx="0" cy="0" r="1" gradientUnits="userSpaceOnUse" gradientTransform="translate(168.944 62.3017) rotate(90) scale(16.7477 16.7477)">
<stop stop-color="#181818"/>
<stop offset="1"/>
</radialGradient>
<radialGradient id="paint13_radial_734_252" cx="0" cy="0" r="1" gradientUnits="userSpaceOnUse" gradientTransform="translate(202.439 62.3017) rotate(90) scale(16.7477 16.7477)">
<stop stop-color="#181818"/>
<stop offset="1"/>
</radialGradient>
<radialGradient id="paint14_radial_734_252" cx="0" cy="0" r="1" gradientUnits="userSpaceOnUse" gradientTransform="translate(6.47109 99.0214) rotate(90) scale(16.7477)">
<stop stop-color="#181818"/>
<stop offset="1"/>
</radialGradient>
<radialGradient id="paint15_radial_734_252" cx="0" cy="0" r="1" gradientUnits="userSpaceOnUse" gradientTransform="translate(39.9665 99.0214) rotate(90) scale(16.7477)">
<stop stop-color="#181818"/>
<stop offset="1"/>
</radialGradient>
<radialGradient id="paint16_radial_734_252" cx="0" cy="0" r="1" gradientUnits="userSpaceOnUse" gradientTransform="translate(73.4618 99.0214) rotate(90) scale(16.7477)">
<stop stop-color="#181818"/>
<stop offset="1"/>
</radialGradient>
<radialGradient id="paint17_radial_734_252" cx="0" cy="0" r="1" gradientUnits="userSpaceOnUse" gradientTransform="translate(106.957 99.0214) rotate(90) scale(16.7477)">
<stop stop-color="#181818"/>
<stop offset="1"/>
</radialGradient>
<radialGradient id="paint18_radial_734_252" cx="0" cy="0" r="1" gradientUnits="userSpaceOnUse" gradientTransform="translate(137.951 99.0213) rotate(90) scale(14.2458 14.2458)">
<stop stop-color="#5E18C6"/>
<stop offset="1"/>
</radialGradient>
<radialGradient id="paint19_radial_734_252" cx="0" cy="0" r="1" gradientUnits="userSpaceOnUse" gradientTransform="translate(168.944 99.0214) rotate(90) scale(16.7477 16.7477)">
<stop stop-color="#181818"/>
<stop offset="1"/>
</radialGradient>
<radialGradient id="paint20_radial_734_252" cx="0" cy="0" r="1" gradientUnits="userSpaceOnUse" gradientTransform="translate(202.439 99.0214) rotate(90) scale(16.7477 16.7477)">
<stop stop-color="#181818"/>
<stop offset="1"/>
</radialGradient>
<radialGradient id="paint21_radial_734_252" cx="0" cy="0" r="1" gradientUnits="userSpaceOnUse" gradientTransform="translate(6.47109 135.741) rotate(90) scale(16.7477 16.7477)">
<stop stop-color="#181818"/>
<stop offset="1"/>
</radialGradient>
<radialGradient id="paint22_radial_734_252" cx="0" cy="0" r="1" gradientUnits="userSpaceOnUse" gradientTransform="translate(39.9665 135.741) rotate(90) scale(16.7477 16.7477)">
<stop stop-color="#181818"/>
<stop offset="1"/>
</radialGradient>
<radialGradient id="paint23_radial_734_252" cx="0" cy="0" r="1" gradientUnits="userSpaceOnUse" gradientTransform="translate(73.4618 135.741) rotate(90) scale(16.7477 16.7477)">
<stop stop-color="#181818"/>
<stop offset="1"/>
</radialGradient>
<radialGradient id="paint24_radial_734_252" cx="0" cy="0" r="1" gradientUnits="userSpaceOnUse" gradientTransform="translate(106.957 135.741) rotate(90) scale(16.7477 16.7477)">
<stop stop-color="#181818"/>
<stop offset="1"/>
</radialGradient>
<radialGradient id="paint25_radial_734_252" cx="0" cy="0" r="1" gradientUnits="userSpaceOnUse" gradientTransform="translate(140.452 135.741) rotate(90) scale(16.7477)">
<stop stop-color="#181818"/>
<stop offset="1"/>
</radialGradient>
<radialGradient id="paint26_radial_734_252" cx="0" cy="0" r="1" gradientUnits="userSpaceOnUse" gradientTransform="translate(173.948 135.741) rotate(90) scale(16.7477 16.7477)">
<stop stop-color="#181818"/>
<stop offset="1"/>
</radialGradient>
<radialGradient id="paint27_radial_734_252" cx="0" cy="0" r="1" gradientUnits="userSpaceOnUse" gradientTransform="translate(207.443 135.741) rotate(90) scale(16.7477)">
<stop stop-color="#181818"/>
<stop offset="1"/>
</radialGradient>
<radialGradient id="paint28_radial_734_252" cx="0" cy="0" r="1" gradientUnits="userSpaceOnUse" gradientTransform="translate(113.982 83.3828) rotate(90) scale(108.237 164.832)">
<stop stop-opacity="0"/>
<stop offset="1"/>
</radialGradient>
<clipPath id="clip0_734_252">
<rect width="1280" height="5897" fill="white" transform="translate(-40 -2398)"/>
</clipPath>
<clipPath id="clip1_734_252">
<rect y="-54" width="1200" height="323" rx="4" fill="white"/>
</clipPath>
<clipPath id="clip2_734_252">
<rect width="235" height="144" fill="white" transform="translate(-10.2766 8.83447)"/>
</clipPath>
</defs>
</svg>
